<svg width="24" height="24" viewBox="0 0 24 24" fill="none" xmlns="http://www.w3.org/2000/svg">
<path d="M12 12.8936C11.117 12.8936 10.2538 13.1554 9.5196 13.646C8.7854 14.1366 8.21316 14.8338 7.87525 15.6496C7.53733 16.4654 7.44892 17.3631 7.62119 18.2292C7.79346 19.0952 8.21867 19.8907 8.84305 20.5151C9.46744 21.1395 10.263 21.5647 11.129 21.737C11.9951 21.9092 12.8927 21.8208 13.7085 21.4829C14.5243 21.145 15.2216 20.5728 15.7122 19.8386C16.2028 19.1044 16.4646 18.2412 16.4646 17.3582C16.4642 16.1742 15.9936 15.0389 15.1565 14.2017C14.3193 13.3645 13.184 12.894 12 12.8936ZM14.0073 17.0582L13.4001 17.6581C13.3613 17.698 13.3337 17.7474 13.3199 17.8013C13.3062 17.8552 13.3067 17.9117 13.3216 17.9653L13.6073 19.1011C13.6219 19.1621 13.6185 19.2261 13.5974 19.2852C13.5763 19.3443 13.5384 19.396 13.4884 19.4339C13.4384 19.4718 13.3784 19.4943 13.3158 19.4986C13.2531 19.503 13.1906 19.4889 13.1359 19.4583L12.1571 18.9011C12.1095 18.8731 12.0553 18.8583 12 18.8583C11.9447 18.8583 11.8905 18.8731 11.8429 18.9011L10.8643 19.4583C10.8095 19.4889 10.747 19.5029 10.6844 19.4986C10.6218 19.4943 10.5618 19.4718 10.5118 19.4339C10.4617 19.396 10.4238 19.3443 10.4027 19.2852C10.3815 19.2261 10.3781 19.1622 10.3927 19.1011L10.6784 17.9653C10.6933 17.9117 10.6939 17.8552 10.6801 17.8013C10.6663 17.7474 10.6387 17.698 10.5999 17.6581L9.99268 17.0582C9.94827 17.0128 9.91818 16.9554 9.90617 16.893C9.89416 16.8307 9.90074 16.7662 9.92511 16.7076C9.94948 16.6489 9.99056 16.5988 10.0432 16.5633C10.0959 16.5279 10.1578 16.5087 10.2213 16.5082H11.0213C11.0839 16.5093 11.1453 16.4914 11.1976 16.457C11.2499 16.4226 11.2905 16.3732 11.3143 16.3153L11.7072 15.4081C11.7318 15.3508 11.7727 15.302 11.8247 15.2677C11.8768 15.2334 11.9378 15.2152 12.0001 15.2152C12.0624 15.2152 12.1234 15.2334 12.1755 15.2677C12.2275 15.302 12.2684 15.3508 12.293 15.4081L12.6857 16.3153C12.7095 16.3732 12.7501 16.4226 12.8024 16.457C12.8547 16.4914 12.9161 16.5093 12.9787 16.5082H13.7787C13.8422 16.5086 13.9042 16.5278 13.9568 16.5633C14.0095 16.5987 14.0506 16.6489 14.075 16.7075C14.0994 16.7662 14.1059 16.8307 14.0939 16.893C14.0819 16.9554 14.0518 17.0128 14.0073 17.0582Z" fill="#A2A2A2"/>
<path d="M4.04669 15.5881L3.60566 16.6176C3.57783 16.6826 3.53154 16.738 3.47252 16.7769C3.41351 16.8158 3.34437 16.8366 3.27368 16.8366H2.3612C2.28975 16.8366 2.21991 16.8578 2.16051 16.8976C2.10111 16.9373 2.05482 16.9937 2.02749 17.0597C2.00015 17.1257 1.993 17.1984 2.00694 17.2685C2.02089 17.3385 2.05529 17.4029 2.10581 17.4534L2.78935 18.1373C2.83345 18.1814 2.86538 18.2362 2.88203 18.2963C2.89868 18.3564 2.89948 18.4199 2.88436 18.4804L2.56134 19.773C2.54415 19.8417 2.54752 19.9139 2.57103 19.9806C2.59454 20.0474 2.63716 20.1058 2.69358 20.1486C2.75 20.1913 2.81774 20.2166 2.88839 20.2211C2.95903 20.2257 3.02946 20.2094 3.09093 20.1743L4.19945 19.5406C4.25402 19.5094 4.31579 19.493 4.37864 19.493C4.4415 19.493 4.50327 19.5094 4.55784 19.5406L5.66638 20.1743C5.72785 20.2095 5.79829 20.2257 5.86894 20.2212C5.9396 20.2166 6.00735 20.1914 6.06378 20.1486C6.12021 20.1058 6.16283 20.0474 6.18634 19.9807C6.20985 19.9139 6.21322 19.8417 6.19602 19.773L5.873 18.4804C5.85788 18.4199 5.85868 18.3565 5.87533 18.2963C5.89198 18.2362 5.92391 18.1814 5.96801 18.1373L6.65156 17.4534C6.70208 17.4029 6.73648 17.3385 6.75042 17.2685C6.76436 17.1984 6.75721 17.1257 6.72988 17.0597C6.70254 16.9937 6.65625 16.9373 6.59685 16.8976C6.53745 16.8579 6.46761 16.8366 6.39616 16.8366H5.48367C5.41297 16.8366 5.34382 16.8159 5.2848 16.7769C5.22579 16.738 5.17949 16.6826 5.15166 16.6176L4.71062 15.5881C4.68279 15.5231 4.6365 15.4677 4.57749 15.4288C4.51848 15.3899 4.44935 15.3691 4.37866 15.3691C4.30797 15.3691 4.23883 15.3899 4.17982 15.4288C4.12081 15.4677 4.07452 15.5231 4.04669 15.5881Z" fill="#A2A2A2"/>
<path d="M19.2894 15.5881L18.8484 16.6177C18.8205 16.6826 18.7742 16.738 18.7152 16.777C18.6562 16.8159 18.5871 16.8366 18.5164 16.8366H17.6039C17.5324 16.8367 17.4626 16.8579 17.4032 16.8976C17.3438 16.9373 17.2975 16.9937 17.2702 17.0598C17.2428 17.1258 17.2357 17.1984 17.2496 17.2685C17.2636 17.3386 17.298 17.4029 17.3485 17.4535L18.032 18.1373C18.0761 18.1814 18.1081 18.2362 18.1247 18.2964C18.1414 18.3565 18.1422 18.4199 18.127 18.4804L17.804 19.773C17.7868 19.8417 17.7902 19.9139 17.8137 19.9807C17.8372 20.0475 17.8798 20.1059 17.9362 20.1486C17.9927 20.1914 18.0604 20.2166 18.1311 20.2212C18.2017 20.2258 18.2721 20.2095 18.3336 20.1744L19.4421 19.5407C19.4967 19.5095 19.5585 19.4931 19.6213 19.4931C19.6842 19.4931 19.746 19.5095 19.8005 19.5407L20.9091 20.1744C20.9705 20.2095 21.041 20.2258 21.1116 20.2212C21.1823 20.2166 21.25 20.1914 21.3064 20.1486C21.3629 20.1059 21.4055 20.0475 21.429 19.9807C21.4525 19.9139 21.4559 19.8417 21.4387 19.773L21.1157 18.4804C21.1005 18.4199 21.1013 18.3565 21.118 18.2964C21.1346 18.2362 21.1666 18.1814 21.2107 18.1373L21.8942 17.4535C21.9447 17.4029 21.9791 17.3386 21.9931 17.2685C22.007 17.1984 21.9999 17.1258 21.9725 17.0598C21.9452 16.9937 21.8989 16.9373 21.8395 16.8976C21.7801 16.8579 21.7103 16.8367 21.6388 16.8366H20.7264C20.6557 16.8366 20.5865 16.8159 20.5275 16.777C20.4685 16.738 20.4222 16.6826 20.3944 16.6177L19.9533 15.5881C19.9255 15.5231 19.8792 15.4678 19.8202 15.4288C19.7612 15.3899 19.6921 15.3691 19.6214 15.3691C19.5507 15.3691 19.4815 15.3899 19.4225 15.4288C19.3635 15.4678 19.3172 15.5231 19.2894 15.5881Z" fill="#A2A2A2"/>
<path d="M17.5933 14.1437H16.0502C15.5675 13.5314 14.9522 13.0366 14.2507 12.6963C13.5492 12.3561 12.7796 12.1793 11.9999 12.1793C11.2203 12.1793 10.4507 12.3561 9.7492 12.6963C9.04768 13.0366 8.43243 13.5314 7.94971 14.1437H6.40663C6.29928 14.1436 6.19357 14.1173 6.09867 14.0672C6.00377 14.017 5.92255 13.9444 5.86204 13.8557C5.80153 13.7671 5.76356 13.665 5.75142 13.5583C5.73929 13.4517 5.75335 13.3436 5.7924 13.2437L6.18514 12.2722C6.36278 11.8301 6.63426 11.432 6.98084 11.1051C7.32741 10.7783 7.74081 10.5306 8.19247 10.3792L10.0498 9.75769C10.1069 9.73943 10.1578 9.70573 10.1969 9.66032C10.236 9.61492 10.2618 9.55958 10.2714 9.50043C10.281 9.44128 10.2741 9.38062 10.2513 9.32518C10.2286 9.26973 10.191 9.22166 10.1426 9.18627C9.68332 8.78067 9.31817 8.27966 9.07266 7.71826C8.82716 7.15686 8.70723 6.54862 8.72125 5.93604C8.72125 3.76441 10.1855 2 11.9999 2C13.8144 2 15.2788 3.76441 15.2788 5.93599C15.2928 6.54859 15.1728 7.15684 14.9273 7.71825C14.6818 8.27966 14.3166 8.78067 13.8573 9.18626C13.8089 9.22164 13.7713 9.26972 13.7485 9.32517C13.7258 9.38062 13.7189 9.44127 13.7285 9.50043C13.7381 9.55958 13.7639 9.61492 13.803 9.66033C13.8421 9.70573 13.893 9.73943 13.9501 9.75769L15.8074 10.3792C16.2591 10.5306 16.6725 10.7783 17.0191 11.1051C17.3656 11.432 17.6371 11.8301 17.8148 12.2722L18.2075 13.2437C18.2465 13.3436 18.2606 13.4517 18.2485 13.5583C18.2363 13.665 18.1984 13.7671 18.1379 13.8558C18.0773 13.9444 17.9961 14.017 17.9012 14.0672C17.8063 14.1174 17.7006 14.1436 17.5933 14.1437Z" fill="#A2A2A2"/>
<path d="M9.22112 9.28581L7.96406 9.70013C7.83024 9.74508 7.69907 9.79754 7.57117 9.85728H2.38502C2.32222 9.85681 2.26047 9.84106 2.20512 9.81139C2.14976 9.78172 2.10246 9.73903 2.0673 9.68699C2.03214 9.63495 2.01017 9.57513 2.0033 9.51271C1.99643 9.45028 2.00485 9.38712 2.02785 9.32867L2.25631 8.76435C2.35939 8.50372 2.51836 8.26886 2.72202 8.07631C2.92568 7.88377 3.16909 7.73822 3.43509 7.64992L4.52088 7.28567C4.55436 7.27495 4.58424 7.25524 4.60727 7.22868C4.6303 7.20213 4.64559 7.16976 4.65148 7.13511C4.65736 7.10045 4.65361 7.06485 4.64064 7.03218C4.62767 6.99952 4.60597 6.97104 4.57791 6.94987C4.30732 6.71267 4.0922 6.41887 3.94778 6.08928C3.80337 5.75969 3.73319 5.40238 3.74221 5.04266C3.69577 4.48288 3.87118 3.92727 4.23064 3.49564C4.5901 3.06402 5.10479 2.79096 5.66374 2.73535C6.22347 2.79045 6.7392 3.06309 7.09994 3.49461C7.46068 3.92612 7.63759 4.48202 7.59259 5.04266C7.59996 5.40215 7.52903 5.75895 7.38472 6.08829C7.24041 6.41763 7.02617 6.71163 6.75687 6.94988C6.72839 6.97035 6.7061 6.99826 6.69244 7.03056C6.67878 7.06286 6.67428 7.0983 6.67943 7.13299C6.68459 7.16768 6.6992 7.20028 6.72166 7.22721C6.74412 7.25414 6.77356 7.27437 6.80676 7.28567L7.89969 7.64991C8.07311 7.7087 8.23681 7.79298 8.38539 7.89999C8.57882 8.40821 8.86188 8.87759 9.22112 9.28581Z" fill="#A2A2A2"/>
<path d="M21.6149 9.85728H16.4288C16.3009 9.79751 16.1697 9.74504 16.0359 9.70013L14.7788 9.28581C15.138 8.87759 15.4211 8.40821 15.6145 7.9C15.7631 7.79299 15.9268 7.7087 16.1002 7.64991L17.1932 7.28567C17.2264 7.27437 17.2558 7.25415 17.2783 7.22722C17.3007 7.2003 17.3153 7.16771 17.3205 7.13302C17.3257 7.09834 17.3212 7.0629 17.3076 7.0306C17.2939 6.99829 17.2717 6.97036 17.2432 6.94987C16.9739 6.71165 16.7596 6.41766 16.6152 6.08832C16.4709 5.75898 16.4 5.40217 16.4073 5.04266C16.3623 4.48202 16.5392 3.92612 16.9 3.49461C17.2607 3.06309 17.7765 2.79045 18.3362 2.73535C18.8951 2.79096 19.4098 3.06402 19.7693 3.49564C20.1287 3.92727 20.3042 4.48288 20.2577 5.04266C20.2667 5.40239 20.1966 5.7597 20.0521 6.08929C19.9077 6.41887 19.6926 6.71267 19.422 6.94988C19.3939 6.97105 19.3722 6.99953 19.3593 7.03219C19.3463 7.06486 19.3426 7.10047 19.3484 7.13512C19.3543 7.16977 19.3696 7.20214 19.3927 7.22869C19.4157 7.25524 19.4456 7.27495 19.479 7.28567L20.5648 7.64991C20.8308 7.73821 21.0742 7.88376 21.2779 8.07631C21.4816 8.26886 21.6405 8.50372 21.7436 8.76435L21.972 9.32867C21.9951 9.38711 22.0035 9.45028 21.9966 9.51271C21.9898 9.57514 21.9678 9.63496 21.9326 9.68701C21.8975 9.73905 21.8502 9.78175 21.7948 9.81142C21.7395 9.84108 21.6777 9.85683 21.6149 9.85728Z" fill="#A2A2A2"/>
</svg>
