<svg width="24" height="24" viewBox="0 0 24 24" fill="none" xmlns="http://www.w3.org/2000/svg">
<path d="M9.70833 2H3.45833C2.65417 2 2 2.65417 2 3.45833V7.20833C2 8.0125 2.65417 8.66667 3.45833 8.66667H9.70833C10.5125 8.66667 11.1667 8.0125 11.1667 7.20833V3.45833C11.1667 2.65417 10.5125 2 9.70833 2Z" fill="#A2A2A2"/>
<path d="M9.70833 10.333H3.45833C2.65417 10.333 2 10.9872 2 11.7913V20.5413C2 21.3455 2.65417 21.9997 3.45833 21.9997H9.70833C10.5125 21.9997 11.1667 21.3455 11.1667 20.5413V11.7913C11.1667 10.9872 10.5125 10.333 9.70833 10.333Z" fill="#A2A2A2"/>
<path d="M20.5417 15.333H14.2917C13.4875 15.333 12.8334 15.9872 12.8334 16.7913V20.5413C12.8334 21.3455 13.4875 21.9997 14.2917 21.9997H20.5417C21.3459 21.9997 22 21.3455 22 20.5413V16.7913C22 15.9872 21.3459 15.333 20.5417 15.333Z" fill="#A2A2A2"/>
<path d="M20.5417 2H14.2917C13.4875 2 12.8334 2.65417 12.8334 3.45833V12.2083C12.8334 13.0125 13.4875 13.6667 14.2917 13.6667H20.5417C21.3459 13.6667 22 13.0125 22 12.2083V3.45833C22 2.65417 21.3459 2 20.5417 2Z" fill="#A2A2A2"/>
</svg>
