<svg width="24" height="24" viewBox="0 0 24 24" fill="none" xmlns="http://www.w3.org/2000/svg">
<path d="M11.9667 6C13.0712 6 13.9667 5.10457 13.9667 4C13.9667 2.89543 13.0712 2 11.9667 2C10.8621 2 9.96667 2.89543 9.96667 4C9.96667 5.10457 10.8621 6 11.9667 6Z" fill="#A2A2A2"/>
<path d="M5.96667 7.66699C7.07124 7.66699 7.96667 6.77156 7.96667 5.66699C7.96667 4.56242 7.07124 3.66699 5.96667 3.66699C4.86211 3.66699 3.96667 4.56242 3.96667 5.66699C3.96667 6.77156 4.86211 7.66699 5.96667 7.66699Z" fill="#A2A2A2"/>
<path d="M17.9667 7.66699C19.0712 7.66699 19.9667 6.77156 19.9667 5.66699C19.9667 4.56242 19.0712 3.66699 17.9667 3.66699C16.8621 3.66699 15.9667 4.56242 15.9667 5.66699C15.9667 6.77156 16.8621 7.66699 17.9667 7.66699Z" fill="#A2A2A2"/>
<path d="M2.56667 15.8663L3.3 16.333L3.8 21.9997H8.1L8.63333 16.333L9.36667 15.8663C9.53333 15.733 9.66667 15.5663 9.66667 15.333L9.93333 9.83301C9.96667 9.36634 9.63333 8.93301 9.16667 8.79967L7.3 8.33301L5.96667 10.9997L4.63333 8.33301L2.76667 8.79967C2.3 8.89967 2 9.33301 2 9.83301L2.26667 15.333C2.3 15.533 2.4 15.733 2.56667 15.8663Z" fill="#A2A2A2"/>
<path d="M14.2 16.4003C13.8667 16.167 13.6333 15.767 13.6 15.367L13.3333 9.86699C13.3 9.06699 13.8333 8.36699 14.6 8.16699L15.9 7.83366C15.8 7.50033 15.5333 7.23366 15.1667 7.13366L13.3 6.66699L11.9667 9.33366L10.6333 6.66699L8.76666 7.13366C8.39999 7.23366 8.13333 7.50033 8.03333 7.83366L9.33333 8.16699C10.1 8.36699 10.6333 9.06699 10.6 9.86699L10.3 15.367C10.2667 15.8003 10.0667 16.167 9.69999 16.4003L9.43332 16.567L9.96666 22.0003H13.9667L14.4667 16.567L14.2 16.4003Z" fill="#A2A2A2"/>
<path d="M14.5667 15.8663L15.3 16.333L15.8 21.9997H20.1L20.6333 16.333L21.3667 15.8663C21.5333 15.733 21.6667 15.5663 21.6667 15.333L21.9333 9.83301C21.9667 9.36634 21.6333 8.93301 21.1667 8.79967L19.3 8.33301L17.9667 10.9997L16.6333 8.33301L14.7667 8.79967C14.3 8.89967 14 9.33301 14 9.83301L14.2667 15.333C14.3 15.533 14.4 15.733 14.5667 15.8663Z" fill="#A2A2A2"/>
</svg>
