<svg xmlns="http://www.w3.org/2000/svg" fill="none" viewBox="0 0 96.11800000000001 85.17539863325742" style="max-height: 500px" width="96.11800000000001" height="85.17539863325742">
<path fill="white" d="M52.7982 81.4275C44.7537 81.4296 36.8892 79.0431 30.1997 74.5701C23.5101 70.097 18.296 63.7382 15.2168 56.2981C12.1377 48.8581 11.3319 40.6709 12.9014 32.7723C14.4708 24.8737 18.345 17.6185 24.0339 11.9244C31.6606 4.28934 42.0047 0 52.7905 0C63.5763 0 73.9204 4.28934 81.5471 11.9244C89.1739 19.5595 93.4585 29.9149 93.4585 40.7125C93.4585 51.5101 89.1739 61.8655 81.5471 69.5006C77.7809 73.2928 73.3008 76.2995 68.366 78.3468C63.4313 80.394 58.1399 81.4411 52.7982 81.4275ZM52.7982 1.18918C44.9893 1.18918 37.3557 3.50733 30.8628 7.85049C24.3699 12.1937 19.3093 18.3668 16.321 25.5892C13.3326 32.8116 12.5507 40.7589 14.0742 48.4262C15.5976 56.0935 19.358 63.1363 24.8798 68.6641C30.4015 74.1919 37.4367 77.9564 45.0955 79.4815C52.7544 81.0066 60.6931 80.2239 67.9076 77.2323C75.1221 74.2406 81.2885 69.1745 85.6269 62.6745C89.9653 56.1745 92.2809 48.5326 92.2809 40.7151C92.27 30.2355 88.1068 20.1883 80.7047 12.7781C73.3026 5.36793 63.2664 1.2001 52.7982 1.18918Z"/>
<path fill="white" d="M52.7982 77.022C45.6254 77.021 38.6141 74.8907 32.6506 70.9007C26.6872 66.9106 22.0395 61.2399 19.2953 54.6056C16.5512 47.9713 15.8337 40.6713 17.2336 33.6288C18.6336 26.5863 22.0881 20.1175 27.1604 15.0404C32.2327 9.96334 38.6949 6.50596 45.7299 5.10547C52.7649 3.70498 60.0567 4.42428 66.6834 7.17241C73.3101 9.92054 78.9739 14.5741 82.9588 20.5446C86.9436 26.5151 89.0705 33.5345 89.0705 40.7151C89.1027 45.4924 88.1865 50.2285 86.375 54.6484C84.5634 59.0682 81.8928 63.0837 78.5181 66.4616C75.1434 69.8395 71.1319 72.5126 66.7166 74.3254C62.3014 76.1383 57.5703 77.0549 52.7982 77.022ZM52.7982 5.08401C45.7587 5.08401 38.8774 7.17373 33.0243 11.0889C27.1712 15.0041 22.6092 20.5689 19.9153 27.0797C17.2215 33.5904 16.5166 40.7546 17.8899 47.6664C19.2633 54.5781 22.6531 60.927 27.6307 65.9101C32.6084 70.8932 38.9503 74.2867 45.8545 75.6615C52.7587 77.0364 59.9151 76.3308 66.4187 73.6339C72.9223 70.9371 78.4811 66.3702 82.392 60.5107C86.3029 54.6512 88.3904 47.7623 88.3904 40.7151C88.3808 31.2681 84.6279 22.2107 77.9551 15.5307C71.2823 8.85062 62.2349 5.09357 52.7982 5.08401Z"/>
<path fill="white" d="M52.7983 75.877C45.8518 75.876 39.0615 73.813 33.2862 69.9487C27.5109 66.0845 23.0099 60.5926 20.3523 54.1676C17.6947 47.7425 16.9999 40.6729 18.3557 33.8525C19.7115 27.0322 23.0571 20.7674 27.9694 15.8505C32.8816 10.9336 39.14 7.58527 45.9531 6.22897C52.7662 4.87267 59.828 5.56929 66.2457 8.23074C72.6633 10.8922 78.1485 15.399 82.0077 21.1811C85.8668 26.9633 87.9266 33.7613 87.9266 40.7154C87.9157 50.0384 84.211 58.9763 77.6254 65.5682C71.0398 72.16 62.1111 75.8675 52.7983 75.877ZM52.7983 6.23467C45.981 6.23467 39.3168 8.25845 33.6484 12.0501C27.9801 15.8417 23.5621 21.2309 20.9533 27.5361C18.3444 33.8413 17.6618 40.7794 18.9918 47.4731C20.3218 54.1667 23.6046 60.3151 28.4251 65.141C33.2457 69.9668 39.3874 73.2532 46.0737 74.5846C52.76 75.9161 59.6905 75.2327 65.9889 72.621C72.2872 70.0093 77.6705 65.5865 81.458 59.912C85.2455 54.2374 87.267 47.5659 87.267 40.7412C87.2589 31.5896 83.6255 22.8149 77.1639 16.3413C70.7023 9.86776 61.9398 6.2239 52.7983 6.20888"/>
<mask height="70" width="70" y="6" x="18" maskUnits="userSpaceOnUse" style="mask-type:luminance" id="mask0_184_605">
<path fill="white" d="M18.1799 40.7148C18.1799 59.8433 33.7731 75.3503 53.0043 75.3503C72.2355 75.3503 87.8389 59.8433 87.8389 40.7148C87.8389 21.5864 72.2406 6.07422 53.0043 6.07422C33.7679 6.07422 18.1799 21.5864 18.1799 40.7148Z"/>
</mask>
<g mask="url(#mask0_184_605)">
<path fill="#57C2EC" d="M55.3438 13.2508C55.346 13.2216 55.346 13.1923 55.3438 13.1631V13.2508Z"/>
<path fill="#57C2EC" d="M46.8 14.0087C46.867 13.9313 46.934 13.8591 46.9856 13.792L46.8 14.0087Z"/>
<path fill="#57C2EC" d="M68.0409 42.34C68.0409 42.34 70.6535 42.6392 70.7566 40.4261C70.7566 40.4261 70.0506 39.317 68.5459 40.323C68.5459 40.323 67.7008 37.1143 66.933 35.0869C66.933 35.0869 64.8202 32.8738 66.8351 32.5695C66.8351 32.5695 70.8802 26.7659 70.4422 23.6088C70.4422 23.6088 70.3443 22.0973 70.8442 22.0973C70.8442 22.0973 67.0257 20.2866 66.7217 18.1715C66.7217 18.1715 63.6299 11.6252 57.4462 14.3438C57.236 14.423 57.0116 14.4576 56.7873 14.4455C56.563 14.4334 56.3437 14.3748 56.1431 14.2735C55.9426 14.1722 55.7653 14.0303 55.6224 13.8568C55.4794 13.6833 55.3741 13.482 55.3129 13.2656C54.9831 15.3291 54.4317 17.9704 54.4317 17.9704C53.7875 19.064 46.6145 14.2509 46.6145 14.2509C46.2165 14.7571 45.695 15.1521 45.1002 15.3978C44.5054 15.6436 43.8574 15.7319 43.2186 15.6541C43.2186 15.6541 38.3902 16.0565 39.998 27.2354L41.2038 27.5346L41.4048 29.6496C41.4048 29.6496 43.2186 35.8401 40.7555 38.6619C40.7555 38.6619 21.7459 59.5081 25.3633 66.0029C25.3633 66.0029 30.1917 71.7446 31.3975 68.5823C31.3975 68.5823 29.2848 75.6807 36.0765 76.1346C36.0765 76.1346 41.8118 82.1755 47.6915 79.0029C47.6915 79.0029 52.0664 83.233 56.4517 80.6639C56.4517 80.6639 60.7339 79.5961 63.6917 79.0029C64.4441 78.8533 72.7456 80.2151 70.3289 68.4327C70.3289 68.4327 80.635 67.8291 68.0667 42.3555M54.576 17.7846C54.5862 17.7663 54.5983 17.749 54.612 17.7331C54.5988 17.7494 54.5867 17.7666 54.576 17.7846ZM63.4392 35.3758C61.2852 35.5099 62.0788 27.9885 62.0788 27.9885C63.2846 27.9885 64.0524 23.9751 64.0524 23.9751C64.1554 24.9126 64.5117 25.8044 65.083 26.5544C66.026 27.8338 63.4444 35.3913 63.4444 35.3913"/>
<path fill="#57C2EC" d="M55.3746 13.0084C55.3746 12.833 55.4262 12.6937 55.4416 12.5957L55.3746 13.0084Z"/>
<path fill="white" d="M47.0732 13.3896C47.0732 13.3896 51.9479 18.1718 54.4626 17.9706C54.4626 17.9706 54.4626 21.5817 52.8549 22.0975C52.8549 22.0975 44.5842 20.034 44.342 15.6182C44.342 15.6182 46.4033 14.4781 47.0732 13.3896Z"/>
<path fill="white" d="M55.3386 12.75C55.3386 12.75 54.8232 18.0686 53.7617 17.9706C53.7617 17.9706 58.4871 24.0114 59.7959 19.6833C59.7959 19.6833 61.0739 14.6897 59.327 13.4929L57.6832 14.0087L55.3386 12.75Z"/>
<path fill="white" d="M55.9724 20.9322C55.9724 21.0822 55.928 21.2288 55.8447 21.3535C55.7615 21.4782 55.6432 21.5754 55.5048 21.6328C55.3664 21.6902 55.2141 21.7052 55.0671 21.6759C54.9202 21.6467 54.7852 21.5744 54.6793 21.4684C54.5733 21.3623 54.5012 21.2272 54.472 21.0801C54.4427 20.933 54.4577 20.7805 54.5151 20.642C54.5724 20.5034 54.6695 20.385 54.7941 20.3016C54.9186 20.2183 55.0651 20.1738 55.2149 20.1738C55.3146 20.1732 55.4134 20.1923 55.5056 20.2302C55.5978 20.268 55.6816 20.3239 55.7521 20.3944C55.8225 20.465 55.8783 20.5489 55.9161 20.6412C55.954 20.7335 55.9731 20.8324 55.9724 20.9322Z"/>
<path fill="white" d="M56.9464 25.4761C56.9464 25.6263 56.9018 25.7731 56.8184 25.898C56.7349 26.0228 56.6163 26.12 56.4776 26.1772C56.3389 26.2344 56.1863 26.2492 56.0392 26.2195C55.8921 26.1898 55.7572 26.1171 55.6514 26.0105C55.5457 25.9039 55.474 25.7683 55.4453 25.6209C55.4167 25.4734 55.4324 25.3208 55.4905 25.1823C55.5487 25.0439 55.6466 24.9258 55.7718 24.8431C55.8971 24.7604 56.044 24.7168 56.194 24.7178C56.2933 24.7178 56.3915 24.7374 56.4832 24.7756C56.5748 24.8138 56.6579 24.8697 56.7279 24.9402C56.7978 25.0107 56.8531 25.0943 56.8906 25.1863C56.9281 25.2783 56.9471 25.3768 56.9464 25.4761Z"/>
<path fill="white" d="M53.5608 23.5059H48.2274V25.2547H53.5608V23.5059Z"/>
<path fill="white" d="M62.4447 33.6896C62.2919 33.1972 62.1697 32.6959 62.0788 32.1884C61.9835 31.6771 61.9215 31.1601 61.8933 30.6408C61.8185 29.6089 61.8461 28.572 61.9757 27.5456V27.494L62.0324 27.4579L62.2952 27.2928C62.3777 27.2309 62.455 27.1587 62.5323 27.0968C62.6829 26.9539 62.8192 26.7966 62.9394 26.6273C63.0633 26.4668 63.1704 26.294 63.2589 26.1115C63.3537 25.9222 63.433 25.7255 63.4959 25.5234C63.7395 24.703 63.8627 23.8515 63.8618 22.9956C63.8824 22.134 63.8411 21.272 63.7381 20.4163C63.6452 19.5499 63.5076 18.689 63.3258 17.8369C63.8014 19.516 64.0544 21.2505 64.0782 22.9956C64.0879 23.8679 63.9698 24.7369 63.7278 25.575C63.6614 25.7867 63.5805 25.9935 63.4856 26.194C63.392 26.3965 63.2799 26.59 63.1506 26.7718C63.02 26.9592 62.8697 27.1321 62.7023 27.2876C62.6147 27.3599 62.5271 27.4321 62.4344 27.4991L62.1458 27.6797L62.2076 27.5868C62.0727 28.6006 62.0227 29.6239 62.0582 30.646C62.0582 31.1618 62.1149 31.6777 62.1716 32.1936C62.2286 32.7039 62.3164 33.2104 62.4344 33.7102"/>
<path fill="white" d="M55.993 20.4934C55.994 20.6438 55.9503 20.7912 55.8675 20.9167C55.7847 21.0421 55.6664 21.1401 55.5278 21.1982C55.3892 21.2562 55.2364 21.2717 55.089 21.2426C54.9416 21.2135 54.8061 21.1411 54.6999 21.0348C54.5936 20.9284 54.5214 20.7928 54.4923 20.6452C54.4633 20.4977 54.4787 20.3448 54.5367 20.206C54.5946 20.0672 54.6925 19.9488 54.8179 19.8659C54.9432 19.783 55.0904 19.7392 55.2407 19.7403C55.3395 19.7403 55.4373 19.7597 55.5286 19.7976C55.6199 19.8354 55.7028 19.8909 55.7726 19.9608C55.8425 20.0308 55.8979 20.1138 55.9357 20.2052C55.9736 20.2966 55.993 20.3945 55.993 20.4934Z"/>
<path fill="white" d="M56.967 25.0276C56.968 25.178 56.9243 25.3253 56.8415 25.4508C56.7587 25.5763 56.6404 25.6743 56.5018 25.7324C56.3632 25.7904 56.2104 25.8058 56.063 25.7767C55.9156 25.7477 55.7801 25.6753 55.6739 25.569C55.5676 25.4626 55.4954 25.327 55.4663 25.1794C55.4373 25.0318 55.4527 24.8789 55.5107 24.7402C55.5686 24.6014 55.6665 24.483 55.7919 24.4001C55.9172 24.3171 56.0644 24.2734 56.2147 24.2744C56.4142 24.2744 56.6056 24.3538 56.7466 24.495C56.8877 24.6363 56.967 24.8278 56.967 25.0276Z"/>
<path fill="white" d="M56.7506 30.3511C56.7592 30.4556 56.7461 30.5608 56.7121 30.6599C56.6781 30.7591 56.6239 30.8501 56.5529 30.9273C56.482 31.0044 56.3958 31.066 56.2999 31.1081C56.204 31.1502 56.1004 31.1719 55.9957 31.1719C55.8909 31.1719 55.7873 31.1502 55.6914 31.1081C55.5955 31.066 55.5093 31.0044 55.4384 30.9273C55.3674 30.8501 55.3133 30.7591 55.2792 30.6599C55.2452 30.5608 55.2321 30.4556 55.2407 30.3511C55.2564 30.1615 55.3427 29.9846 55.4826 29.8557C55.6224 29.7268 55.8056 29.6553 55.9957 29.6553C56.1858 29.6553 56.3689 29.7268 56.5087 29.8557C56.6486 29.9846 56.7349 30.1615 56.7506 30.3511Z"/>
<path fill="white" d="M56.7505 20.8232C56.988 21.4671 57.191 22.1232 57.3586 22.7887C57.5029 23.3923 57.6781 24.0939 57.7863 24.8522C57.8533 25.2339 57.8996 25.6311 57.9409 26.0387C57.9821 26.4462 58.0079 26.8538 58.0388 27.2664C58.0697 27.6791 58.0388 28.097 58.0388 28.5045C58.0388 28.9121 58.0027 29.3145 57.9563 29.7014C57.9099 30.0883 57.8687 30.4597 57.7863 30.8053C57.7038 31.1509 57.6368 31.4811 57.5492 31.7803C57.4616 32.0795 57.3534 32.3426 57.2658 32.5799C57.1782 32.8172 57.0648 33.0081 56.9927 33.1732C56.833 33.493 56.7454 33.689 56.7454 33.689C56.7454 33.689 56.8175 33.4982 56.9515 33.1732C57.039 32.9766 57.1147 32.7751 57.1782 32.5696C57.2435 32.3254 57.3208 32.0572 57.4101 31.7648C57.4822 31.4656 57.5338 31.1355 57.6008 30.795C57.6678 30.4545 57.6832 30.0779 57.7347 29.6962C57.7863 29.3144 57.776 28.9224 57.8017 28.52C57.8275 28.1176 57.8017 27.7101 57.8017 27.2974C57.8017 26.8847 57.7657 26.4823 57.7193 26.08C57.6729 25.6776 57.642 25.2855 57.5853 24.9038C57.4822 24.1454 57.3534 23.4387 57.2349 22.8403C57.1164 22.2419 57.003 21.7312 56.9103 21.3855C56.8175 21.0399 56.766 20.8387 56.766 20.8387"/>
<path fill="white" d="M53.5815 23.0625H48.248V24.8113H53.5815V23.0625Z"/>
<path fill="#DEB395" d="M30.9492 25.93C31.0387 25.7516 31.1551 25.588 31.2945 25.4451C31.4371 25.2968 31.5961 25.1653 31.7686 25.0531C31.9686 24.9222 32.1876 24.823 32.4178 24.759C32.5348 24.7264 32.6535 24.7006 32.7734 24.6816C32.8919 24.6816 33.0104 24.6816 33.1238 24.6816C33.2342 24.6864 33.3443 24.6967 33.4536 24.7126C33.5493 24.725 33.644 24.744 33.737 24.7693C33.8766 24.8036 34.0128 24.8502 34.1441 24.9086L34.2884 24.9757H34.1287C33.9907 24.951 33.8513 24.9355 33.7113 24.9293C33.6204 24.9212 33.529 24.9212 33.4382 24.9293H33.1341C32.9157 24.948 32.6998 24.9895 32.49 25.0531C32.2791 25.1114 32.0752 25.1927 31.8819 25.2955C31.7014 25.3813 31.5289 25.4832 31.3666 25.5999C31.2084 25.7125 31.0601 25.8385 30.9235 25.9765"/>
<path fill="#DEB395" d="M31.851 26.0903C31.9131 25.947 32.0004 25.816 32.1086 25.7034C32.3424 25.4435 32.644 25.2541 32.9795 25.1566C33.1574 25.0968 33.3432 25.0638 33.5308 25.0586C33.6914 25.0655 33.8505 25.0914 34.0049 25.136C34.1137 25.164 34.2191 25.2038 34.3193 25.2546L34.4326 25.3114H34.309C34.2009 25.3041 34.0924 25.3041 33.9843 25.3114C33.8368 25.3012 33.6887 25.3012 33.5412 25.3114C33.3753 25.3291 33.2115 25.3619 33.0516 25.4094C32.607 25.5469 32.1973 25.7792 31.851 26.0903Z"/>
<path fill="#DEB395" d="M33.0516 26.2499C33.0866 26.1477 33.1408 26.0531 33.2114 25.9713C33.2867 25.8882 33.3695 25.8122 33.4587 25.7444C33.5666 25.672 33.6847 25.6163 33.8091 25.5793L34.005 25.538C34.0683 25.5303 34.1323 25.5303 34.1956 25.538C34.2575 25.538 34.3141 25.538 34.3708 25.538C34.4229 25.5448 34.4735 25.5605 34.5203 25.5844C34.6206 25.6218 34.7172 25.6684 34.8088 25.7237C34.8088 25.7237 34.6748 25.7237 34.4996 25.7237C34.4519 25.716 34.4031 25.716 34.3554 25.7237H34.2008C34.092 25.7298 33.9845 25.7506 33.8813 25.7856C33.7753 25.8149 33.6719 25.8529 33.5721 25.8991C33.4793 25.9507 33.3814 25.9868 33.3093 26.0384C33.2371 26.09 33.165 26.1261 33.1238 26.1571L33.0516 26.2086"/>
<path fill="#EBC2A1" d="M66.598 25.2552C66.598 25.2552 69.7517 23.4599 70.2773 23.104C70.6123 22.8822 71.2306 26.7151 71.2152 26.9369C71.0709 29.3666 69.5095 31.2031 67.876 32.8642C67.4483 33.2976 66.6599 34.0456 66.7887 34.742C66.8918 35.2991 67.5204 35.4952 67.8605 35.8924C68.8911 37.0737 68.7726 38.6265 68.2676 40.0193C68.2676 40.0193 72.0345 38.6729 70.705 41.567C70.705 41.567 69.0715 42.9598 68.3655 42.3562C68.3655 42.3562 64.846 35.9079 63.4392 35.4075C63.4392 35.4075 64.5883 27.427 66.598 25.2706"/>
<path fill="white" d="M62.4189 34.1382C62.2685 33.6435 62.1463 33.1405 62.053 32.6319C61.9625 32.1199 61.9006 31.6032 61.8675 31.0843C61.7944 30.0522 61.8238 29.0154 61.9551 27.9891V27.9375L62.0118 27.9014L62.2746 27.7363L62.5168 27.5403C62.6685 27.4003 62.805 27.2447 62.9239 27.076C63.0461 26.9052 63.1531 26.7239 63.2434 26.5343C63.3365 26.3449 63.4141 26.1482 63.4753 25.9462C63.7234 25.1267 63.8484 24.2748 63.8463 23.4185C63.8651 22.5567 63.822 21.6947 63.7175 20.8391C63.6295 19.9721 63.4918 19.1109 63.3052 18.2598C63.786 19.9379 64.0408 21.6728 64.0627 23.4185C64.071 24.291 63.9512 25.1601 63.7071 25.9978C63.6434 26.2097 63.5642 26.4166 63.4701 26.6168C63.3768 26.8212 63.2647 27.0163 63.1352 27.1998C63.0042 27.3885 62.8521 27.5616 62.6817 27.7157C62.5941 27.7827 62.5116 27.8601 62.4189 27.9272L62.1303 28.1026L62.1921 28.0149C62.0572 29.0286 62.0072 30.0519 62.0427 31.074C62.0427 31.5898 62.0994 32.1057 62.1561 32.6216C62.2139 33.1332 62.2999 33.6412 62.4137 34.1434"/>
<path fill="white" d="M56.7248 30.8003C56.7092 30.99 56.6228 31.1668 56.483 31.2957C56.3431 31.4246 56.16 31.4961 55.9699 31.4961C55.7798 31.4961 55.5967 31.4246 55.4568 31.2957C55.317 31.1668 55.2306 30.99 55.215 30.8003C55.2063 30.6958 55.2195 30.5907 55.2535 30.4915C55.2875 30.3923 55.3417 30.3013 55.4126 30.2242C55.4836 30.147 55.5697 30.0855 55.6656 30.0434C55.7616 30.0012 55.8652 29.9795 55.9699 29.9795C56.0746 29.9795 56.1782 30.0012 56.2742 30.0434C56.3701 30.0855 56.4562 30.147 56.5272 30.2242C56.5981 30.3013 56.6523 30.3923 56.6863 30.4915C56.7203 30.5907 56.7335 30.6958 56.7248 30.8003Z"/>
<path fill="white" d="M56.7248 21.2666C56.9632 21.9124 57.1678 22.5701 57.338 23.2372C57.4823 23.8356 57.6523 24.5424 57.7657 25.3007C57.8327 25.6824 57.8739 26.0848 57.9203 26.4872C57.9666 26.8896 57.9821 27.3074 58.0182 27.7201C58.0542 28.1328 58.0182 28.5455 58.0182 28.9531C58.0182 29.3606 57.9821 29.763 57.9357 30.1499C57.8893 30.5368 57.8481 30.9082 57.7657 31.2538C57.6832 31.5995 57.6162 31.9348 57.5235 32.2288L57.2452 33.0284C57.1648 33.2309 57.0736 33.4289 56.9721 33.6217L56.7196 34.1375L56.9309 33.6217C57.0183 33.4234 57.094 33.2201 57.1576 33.0129L57.3843 32.2082C57.4616 31.9141 57.508 31.584 57.5802 31.2384C57.6523 30.8927 57.6575 30.5213 57.7141 30.1447C57.7708 29.7681 57.7554 29.3657 57.776 28.9634C57.7966 28.561 57.776 28.1535 57.776 27.7459C57.776 27.3384 57.7451 26.9257 57.6987 26.5285C57.6523 26.1312 57.6214 25.7289 57.5596 25.3523C57.4616 24.5888 57.3328 23.8821 57.2143 23.2888C57.0958 22.6956 56.9773 22.1848 56.8845 21.8341C56.7917 21.4833 56.7402 21.2872 56.7402 21.2872"/>
<path fill="white" d="M34.8192 59.2559L34.1854 60.7158C33.9896 61.1491 33.7938 61.6701 33.5567 62.217C33.4433 62.4904 33.33 62.7792 33.2166 63.0681C33.1032 63.357 32.9744 63.6511 32.8714 63.9503C32.6601 64.5487 32.4076 65.1368 32.2324 65.7042C32.0572 66.2717 31.8459 66.7876 31.7171 67.2518C31.4491 68.1649 31.2533 68.7737 31.2533 68.7737C31.2533 68.7737 31.3667 68.1495 31.5779 67.226C31.6862 66.7618 31.851 66.2253 32.0211 65.6784C32.1912 65.1316 32.4282 64.5126 32.6343 63.909C32.7425 63.6046 32.8714 63.3158 32.9899 63.0269C33.1084 62.738 33.2321 62.4491 33.3506 62.1757C33.6031 61.6289 33.835 61.1439 34.0566 60.7003C34.4843 59.844 34.8192 59.3023 34.8192 59.3023"/>
<path fill="white" d="M38.3696 65.3329C38.3696 65.3329 38.1171 65.9932 37.7667 66.9836C37.5864 67.4995 37.3957 68.0618 37.1896 68.686C36.9835 69.3102 36.7773 69.9808 36.6021 70.6566C36.4138 71.3138 36.259 71.9801 36.1384 72.653C36.0765 72.9729 36.025 73.2876 35.9889 73.5868C35.9485 73.8637 35.9244 74.1427 35.9168 74.4225C35.9013 74.6595 35.9013 74.8973 35.9168 75.1344C35.9128 75.3197 35.9301 75.505 35.9683 75.6864C36.025 75.9856 36.0559 76.161 36.0559 76.161L35.9219 75.6915C35.8655 75.5143 35.8326 75.3305 35.824 75.1447C35.7817 74.9064 35.7645 74.6644 35.7725 74.4225C35.7639 74.1317 35.7708 73.8407 35.7931 73.5507C35.8117 73.2323 35.8496 72.9153 35.9065 72.6015C36.0181 71.9187 36.1643 71.242 36.3445 70.5741C36.53 69.8931 36.7516 69.2225 36.968 68.5983C37.1844 67.9741 37.4163 67.4015 37.6224 66.9166C38.0295 65.9416 38.3593 65.3174 38.3593 65.3174"/>
<path fill="white" d="M50.1083 63.6973C50.1083 63.6973 50.031 63.9294 49.8918 64.3266C49.7527 64.7238 49.5775 65.3068 49.3765 65.998C49.1756 66.6893 48.9231 67.5044 48.6757 68.3762C48.4284 69.248 48.1604 70.1766 47.9749 71.1206C47.7894 72.0647 47.5627 73.0087 47.4287 73.9012C47.3462 74.35 47.3153 74.7833 47.2586 75.196C47.2019 75.6087 47.2019 75.9956 47.171 76.3567C47.1401 76.7178 47.171 77.048 47.171 77.3472C47.171 77.4916 47.171 77.6309 47.171 77.7547C47.171 77.8785 47.171 77.9972 47.2071 78.1055C47.2535 78.5234 47.2792 78.7658 47.2792 78.7658L47.1659 78.1107C47.1659 78.0075 47.1246 77.8888 47.104 77.765C47.0834 77.6412 47.104 77.4968 47.0731 77.3472C47.0374 77.0183 47.0236 76.6874 47.0319 76.3567C47.0319 75.9904 47.0319 75.5932 47.0783 75.1805C47.1246 74.7678 47.1298 74.319 47.2122 73.8702C47.3359 72.9674 47.5111 72.0131 47.7275 71.0639C47.944 70.1147 48.2068 69.1861 48.4644 68.3091C48.7221 67.4322 48.9797 66.6377 49.2477 65.9516C49.763 64.5846 50.134 63.6973 50.134 63.6973"/>
<path fill="white" d="M68.8447 58.4512C68.8447 58.4512 68.9169 58.6008 69.0199 58.8742C69.123 59.1476 69.2827 59.5397 69.4322 60.0194C69.5816 60.4992 69.7517 61.0512 69.9166 61.665C69.999 61.9694 70.0557 62.2944 70.1227 62.6142C70.1897 62.9341 70.2721 63.2642 70.3237 63.5996L70.4473 64.5952C70.4998 64.9144 70.5325 65.2366 70.5452 65.5598C70.5452 65.8745 70.5452 66.1789 70.5762 66.4678C70.6071 66.7567 70.6071 67.0301 70.5762 67.2829C70.4886 68.3146 70.4061 68.9491 70.4061 68.9491C70.4061 68.9491 70.4061 68.2733 70.4319 67.2777C70.4332 67.0087 70.4178 66.74 70.3855 66.4729C70.3649 66.1875 70.3443 65.8883 70.3237 65.5753C70.3028 65.2554 70.2649 64.9369 70.2103 64.621L70.0712 63.6408C70.0248 63.3107 69.9475 62.9857 69.8908 62.6607C69.8341 62.3357 69.7774 62.021 69.7001 61.7166C69.5455 61.1131 69.4373 60.5404 69.293 60.0607C69.1488 59.5809 69.0612 59.1682 68.9736 58.8897L68.8447 58.4512Z"/>
<path fill="white" d="M71.2616 60.3594C71.2616 60.3594 71.4368 60.7927 71.6429 61.4582C71.8905 62.2763 72.0816 63.1106 72.2149 63.955C72.251 64.1871 72.2768 64.4193 72.3025 64.6463C72.3283 64.8732 72.3334 65.1002 72.354 65.3169C72.378 65.7172 72.378 66.1186 72.354 66.5189C72.354 66.6943 72.3077 66.849 72.2922 66.9935C72.2732 67.1152 72.2474 67.2357 72.2149 67.3546L72.1273 67.6589C72.1273 67.6589 72.1273 67.5454 72.1634 67.3443C72.1832 67.2249 72.1935 67.1041 72.1943 66.9831C72.1943 66.8387 72.1943 66.6839 72.1943 66.5085C72.1943 66.1629 72.1943 65.7657 72.1325 65.3324C72.0706 64.899 72.0397 64.4502 71.9624 63.9911C71.8233 63.0832 71.6481 62.1752 71.5089 61.4943C71.3698 60.8133 71.2667 60.3594 71.2667 60.3594"/>
<path fill="white" d="M62.2231 33.0391C62.2231 33.0391 60.3938 36.0363 46.1662 33.6581C46.1662 33.6581 45.2335 35.5152 45.2335 36.1446C45.2335 36.1446 61.0895 39.1418 62.7127 35.768L62.2231 33.0391Z"/>
<path fill="white" d="M43.0331 35.6854C42.8579 35.9846 32.9022 52.8019 35.8703 57.2642C35.8703 57.2642 49.2271 74.1331 56.8433 69.7586C56.8433 69.7586 72.8177 62.3868 69.3291 48.1385C69.3291 48.1385 66.7526 38.2854 62.4086 35.5358L61.378 36.2786C61.378 36.2786 68.819 45.3012 66.8041 56.511C66.8041 56.511 59.8166 66.3848 55.6941 67.1328C55.6941 67.1328 54.947 68.634 51.8242 66.7614C51.8242 66.7614 39.7145 60.1376 38.3438 54.6384C38.3438 54.6384 35.2932 50.6611 45.6302 35.4326L43.0331 35.6854Z"/>
<path fill="#F1C151" d="M52.7982 36.9239C53.5969 36.6866 59.2395 38.2239 61.6151 36.3616C61.6151 36.3616 70.7824 47.5714 66.6342 56.8261C66.0622 58.1055 64.5729 59.4467 63.6866 60.5197C62.5218 61.9601 61.2817 63.3377 59.9713 64.6467C58.1213 66.4626 55.3593 68.459 52.6539 67.5356C50.3557 66.7514 48.4593 64.8788 46.4239 63.615C43.1311 61.5515 39.7919 58.7916 38.3954 55.0412C37.5812 52.8488 37.6122 49.4647 38.751 47.3548C38.751 47.3548 45.0583 35.0616 45.5582 34.9326C45.5582 34.9326 50.804 37.512 52.7982 36.9084"/>
<path fill="#EBC2A1" d="M34.9686 26.6061C35.2153 26.7981 35.4338 27.0239 35.6179 27.2767C36.092 27.9525 35.7673 28.6644 35.9889 29.3402C36.5042 30.8517 39.8485 31.2953 41.142 31.0425C41.7706 30.9136 40.5081 26.8691 40.5081 26.8691C40.874 26.4152 46.0734 26.962 46.0734 26.962C46.9907 30.2533 46.0734 34.1842 46.0734 34.1842C44.5533 38.6774 40.4308 36.9234 37.7255 34.829C36.6223 33.856 35.5891 32.8061 34.6337 31.6874C33.567 30.5886 32.222 29.9747 31.0265 29.0461C28.5788 27.1219 30.7276 23.191 33.6546 24.2434C33.5412 24.2021 33.8143 25.208 33.8401 25.2751C34.0809 25.818 34.4727 26.28 34.9686 26.6061Z"/>
<path fill="#EBC2A1" d="M30.3566 25.4767C30.3566 25.4767 31.6397 23.0728 33.9328 24.3831C33.9328 24.3831 35.8858 26.9315 35.7054 28.2263L33.9328 29.1136L30.3566 25.4767Z"/>
</g>
<path fill="white" d="M60.2496 37.1143C60.4372 37.3324 60.6094 37.5634 60.7649 37.8055C60.928 38.0553 61.0776 38.3136 61.2132 38.5793C61.3688 38.8861 61.5031 39.2033 61.6151 39.5285C61.7261 39.8643 61.8055 40.2097 61.8522 40.5603C61.8822 40.8604 61.8822 41.1629 61.8522 41.463C61.8522 41.5972 61.8161 41.7158 61.8006 41.8241C61.783 41.9135 61.7589 42.0014 61.7285 42.0872L61.6564 42.3194C61.6564 42.3194 61.6564 42.2317 61.6821 42.0769C61.6821 42.0047 61.7079 41.917 61.7079 41.8087C61.7079 41.7003 61.7079 41.5868 61.7079 41.463C61.7079 41.3392 61.7079 41.1948 61.677 41.0503C61.646 40.9059 61.6254 40.7563 61.6048 40.6015C61.5382 40.2746 61.4505 39.9524 61.342 39.6369C61.2338 39.317 61.1153 38.9972 60.9865 38.7031C60.8576 38.4091 60.7288 38.1357 60.6154 37.9035C60.3836 37.4444 60.2135 37.14 60.2135 37.14"/>
<path fill="white" d="M59.1262 37.1143C59.1262 37.1143 59.0953 38.1202 59.0592 39.1261C59.0592 39.3789 59.0592 39.642 59.0592 39.8587C59.0592 40.0753 59.0592 40.3126 59.0592 40.4984C59.1004 40.8698 59.1107 41.1277 59.1107 41.1277C59.1107 41.1277 59.0231 40.8956 58.9149 40.519C58.884 40.3333 58.8428 40.1115 58.8118 39.8742C58.7809 39.6369 58.8118 39.3583 58.8118 39.121C58.8118 38.8837 58.8118 38.6051 58.8685 38.373C58.9252 38.1408 58.9355 37.919 58.9767 37.7333C59.0152 37.5234 59.0686 37.3165 59.1365 37.1143"/>
<path fill="white" d="M29.7073 19.6162C29.7073 19.6162 37.5709 28.2312 38.8231 42.2474C38.8231 42.2474 39.4621 44.5224 37.3751 44.7339C37.3751 44.7339 35.2726 45.0382 35.8549 41.3498C35.8549 41.3498 35.623 26.4257 28.7334 21.1793L29.7073 19.6162Z"/>
<path fill="#F1C151" d="M12.1767 15.9533C12.1767 15.9533 8.1779 18.8009 3.65352 17.3617C3.65352 17.3617 6.74535 21.2307 15.5983 17.0676C15.5983 17.0676 11.8623 20.4466 9.24458 19.9307C9.24458 19.9307 10.9451 22.1696 17.1442 18.2593C17.1442 18.2593 15.083 21.4835 18.2521 22.1438C18.2521 22.1438 19.8702 22.1128 20.236 20.9521C20.236 20.9521 18.3964 22.0561 18.2573 20.0442C18.2981 19.7283 18.4038 19.4242 18.5676 19.1511C18.7314 18.878 18.9499 18.6417 19.2092 18.4572C19.4686 18.2726 19.7633 18.1437 20.0748 18.0786C20.3863 18.0135 20.7078 18.0135 21.0193 18.0787C21.0193 18.0787 23.467 18.218 23.905 18.8061C23.905 18.8061 25.353 24.3156 27.0432 22.7473C28.9598 21.3133 30.3739 19.3089 31.0832 17.0212C31.0832 17.0212 30.9492 14.1117 25.7447 15.9069C25.7447 15.9069 24.7913 3.99549 14.2276 3.45898C14.2276 3.45898 10.301 4.0316 8.99208 4.96532C8.99208 4.96532 13.7638 3.60859 16.3146 5.32127C16.3146 5.32127 12.5425 4.71771 6.07545 9.00458C6.07545 9.00458 2.63321 11.2589 0 10.5264C0 10.5264 0.200968 19.0589 12.1767 15.9533ZM25.3015 20.4156C27.0896 24.0267 29.0838 19.5025 29.0838 19.5025C27.5998 23.0208 26.1414 22.3243 26.1414 22.3243C24.8635 21.6073 24.5079 18.868 24.5079 18.868L25.3015 20.4156ZM13.233 17.7125C11.0378 18.6101 8.22427 19.2085 5.96208 18.2283C6.9072 18.5748 7.92181 18.688 8.91994 18.5585C9.99692 18.4759 11.0997 17.8105 12.0994 17.439C13.1925 17.0402 14.3386 16.8055 15.5004 16.7426C16.5772 16.6155 17.6684 16.6943 18.7159 16.9748C16.7526 16.2887 13.2382 17.7125 13.233 17.7125ZM19.36 21.5866C19.1395 21.7524 18.8786 21.8561 18.6045 21.8869C18.3304 21.9178 18.0531 21.8746 17.8013 21.762C17.5494 21.6494 17.3323 21.4714 17.1724 21.2464C17.0124 21.0215 16.9155 20.7578 16.8917 20.4827C16.6907 19.3581 17.407 18.8061 18.1594 18.2025C17.7677 18.5581 17.4551 18.9923 17.2421 19.4767C16.5722 22.185 19.3549 21.5866 19.3549 21.5866M12.6559 15.5664C2.525 17.7021 1.67989 13.7557 1.67989 13.7557C3.89056 17.4132 11.5119 15.3033 11.5119 15.3033C18.3243 12.9613 23.6061 17.5783 23.6061 17.5783C20.189 15.9839 16.4211 15.2913 12.6611 15.5664M9.58984 9.06648C9.58984 9.06648 16.7268 4.01096 22.658 10.8875C22.2148 10.3716 17.6492 5.62564 9.58984 9.06133M13.4701 4.10382C13.4701 4.10382 18.7365 2.90701 22.8074 8.628C22.8074 8.628 19.2621 4.32564 13.4701 4.10382ZM7.28642 8.87045C9.23943 7.73038 11.3213 6.58515 13.5628 6.1673C14.7645 5.91682 16.0041 5.90964 17.2086 6.1462C18.4131 6.38275 19.5581 6.85824 20.5761 7.54467C22.1684 8.62284 23.3021 10.3716 24.1008 12.0946C23.4309 10.6502 21.9623 9.26252 20.7307 8.33395C19.493 7.49867 18.0846 6.95055 16.6083 6.7296C15.5436 6.49004 14.4417 6.46706 13.3679 6.66201C12.2942 6.85697 11.2705 7.26589 10.3576 7.86451C10.0691 8.05022 9.7805 8.25141 9.49193 8.46292C7.27611 10.0982 4.56561 11.6974 1.67474 10.7276C3.73596 11.4085 5.66321 9.84029 7.31218 8.87045"/>
<path fill="white" d="M100.279 19.7857C100.119 19.631 100.119 19.1564 100.336 19.0996C101.006 19.1357 101.851 19.1564 102.815 19.1564C103.459 19.1564 104.031 19.1564 104.737 19.0996C104.737 20.3171 105.422 21.519 106.283 23.3659L107.581 26.1361C107.756 26.5333 108.462 27.7714 108.735 28.2614C108.993 27.7868 109.307 27.1781 109.838 26.0174L110.843 23.8559C111.631 22.341 112.256 20.7466 112.708 19.0996C113.356 19.1531 114.006 19.172 114.656 19.1564C115.306 19.1564 116.202 19.1564 116.913 19.0996C117.006 19.1862 117.064 19.3042 117.075 19.4308C117.087 19.5574 117.051 19.6838 116.975 19.7857L116.403 19.8837C115.599 20.023 115.208 20.2603 115.208 21.3024C115.208 25.3519 115.244 27.4928 115.362 29.9535C115.403 30.8563 115.481 31.3309 116.249 31.4289L116.872 31.5063C117.032 31.661 117.032 32.115 116.836 32.1924C115.934 32.1563 115.089 32.1356 114.125 32.1356C113.162 32.1356 112.162 32.1356 111.219 32.1924C111.165 32.1551 111.119 32.1062 111.086 32.0492C111.053 31.9922 111.033 31.9285 111.028 31.8628C111.022 31.7971 111.032 31.731 111.055 31.6693C111.078 31.6076 111.115 31.5519 111.162 31.5063L111.75 31.4289C112.652 31.3102 112.652 31.0729 112.652 29.8813L112.61 24.769V22.5301H112.574C111.121 25.6769 109.55 28.9579 108.251 32.2801C108.141 32.3715 108.002 32.4209 107.859 32.4194C107.68 32.4271 107.502 32.3861 107.344 32.3007C106.576 29.8658 104.165 24.9857 103.062 22.4321H103.021C102.943 23.7115 102.923 24.573 102.902 25.5996C102.902 26.8738 102.866 28.8392 102.866 30.0206C102.866 31.0059 102.985 31.2793 103.768 31.3979L104.536 31.5166C104.606 31.6191 104.641 31.7424 104.633 31.8668C104.626 31.9911 104.577 32.1094 104.494 32.2027C103.768 32.1666 102.923 32.1459 102.176 32.1459C101.547 32.1459 100.805 32.1459 100.016 32.2027C99.7639 32.1253 99.7639 31.6146 99.9391 31.5166L100.295 31.4547C101.294 31.2793 101.413 31.1606 101.531 29.9432C101.629 28.9785 101.686 27.271 101.805 25.3984C101.882 24.0829 101.923 22.4889 101.923 21.4313C101.923 20.3738 101.49 20.0127 100.707 19.8837L100.279 19.7857Z"/>
<path fill="white" d="M121.469 27.689C121 27.689 120.953 27.689 120.824 28.0862L120.057 30.3663C119.973 30.593 119.926 30.8316 119.917 31.0731C119.917 31.1917 120.175 31.3104 120.727 31.4084L121.314 31.5064C121.432 31.6457 121.469 32.0945 121.273 32.1925C120.587 32.1564 119.881 32.1564 119.057 32.1358C118.387 32.1358 117.934 32.1925 117.032 32.1925C116.815 32.0738 116.836 31.6766 116.975 31.5064L117.49 31.4445C117.767 31.4243 118.03 31.3193 118.245 31.144C118.46 30.9686 118.616 30.7313 118.691 30.4643C119.026 29.6751 119.397 28.731 119.928 27.3175L121.716 22.5199C122.169 21.2819 122.499 20.5906 122.442 20.0231C123.107 19.7885 123.698 19.3808 124.153 18.8418C124.406 18.8418 124.524 18.9398 124.602 19.2339C124.761 19.8065 124.993 20.5339 125.488 21.9319L128.157 29.6389C128.569 30.8151 128.75 31.2691 129.471 31.3877L130.218 31.5064C130.337 31.6044 130.378 32.0738 130.218 32.1925C129.281 32.1564 128.219 32.1358 127.199 32.1358C126.178 32.1358 125.447 32.1358 124.545 32.1925C124.492 32.1535 124.449 32.1034 124.418 32.0458C124.387 31.9882 124.369 31.9244 124.365 31.8591C124.361 31.7937 124.371 31.7282 124.395 31.6673C124.419 31.6064 124.456 31.5515 124.504 31.5064L125.132 31.4084C125.586 31.331 125.648 31.1917 125.648 31.0731C125.56 30.6184 125.436 30.1716 125.277 29.737L124.761 28.0449C124.663 27.7302 124.504 27.689 123.818 27.689H121.469ZM123.71 26.6572C124.164 26.6572 124.262 26.6005 124.102 26.0898L123.586 24.4957C123.313 23.6497 122.958 22.587 122.783 22.1743C122.623 22.6283 122.231 23.691 121.937 24.5937L121.422 26.0691C121.242 26.585 121.34 26.6572 121.834 26.6572H123.71Z"/>
<path fill="white" d="M131.945 22.3444C131.945 20.477 131.903 20.1004 131.002 20.0024L130.631 19.9663C130.435 19.8683 130.435 19.2956 130.667 19.275C132.316 19.177 133.851 19.0996 135.933 19.0996C137.484 19.0541 139.032 19.2739 140.509 19.7496C141.686 20.1623 142.703 20.9346 143.418 21.9574C144.133 22.9802 144.508 24.2018 144.492 25.45C144.54 26.6659 144.233 27.8695 143.609 28.9138C142.985 29.9581 142.071 30.798 140.978 31.3309C139.643 31.9963 138.036 32.2543 136.01 32.2543C135.088 32.2543 134.104 32.1356 133.398 32.1356C132.455 32.1356 131.455 32.1356 130.306 32.1924C130.23 32.094 130.189 31.9734 130.189 31.8493C130.189 31.7252 130.23 31.6046 130.306 31.5063L130.914 31.4082C131.8 31.269 131.919 31.1142 131.919 29.3035L131.945 22.3444ZM134.753 28.5761C134.753 29.6594 134.794 30.3662 135.145 30.7789C135.361 30.9825 135.618 31.1382 135.899 31.236C136.179 31.3338 136.477 31.3714 136.773 31.3463C140.174 31.3463 141.334 28.3182 141.334 25.646C141.334 22.1071 139.468 20.0024 135.912 20.0024C135.397 20.0024 135.006 20.1004 134.882 20.2603C134.743 20.6232 134.695 21.0147 134.743 21.4004L134.753 28.5761Z"/>
<path fill="white" d="M149.3 27.689C148.831 27.689 148.785 27.689 148.656 28.0862L147.888 30.3663C147.805 30.593 147.758 30.8316 147.749 31.0731C147.749 31.1917 148.007 31.3104 148.553 31.4084L149.146 31.5064C149.264 31.6457 149.3 32.0945 149.104 32.1925C148.419 32.1564 147.713 32.1564 146.889 32.1358C146.219 32.1358 145.765 32.1925 144.863 32.1925C144.647 32.0738 144.668 31.6766 144.807 31.5064L145.322 31.4445C145.598 31.4232 145.86 31.3178 146.074 31.1426C146.288 30.9673 146.442 30.7306 146.518 30.4643C146.853 29.6751 147.224 28.731 147.754 27.3175L149.542 22.5199C149.996 21.2819 150.326 20.5906 150.269 20.0231C150.934 19.7907 151.523 19.3824 151.975 18.8418C152.232 18.8418 152.351 18.9398 152.428 19.2339C152.588 19.8065 152.82 20.5339 153.314 21.9319L155.984 29.6389C156.396 30.8151 156.571 31.2691 157.298 31.3877L158.045 31.5064C158.163 31.6044 158.205 32.0738 158.045 32.1925C157.107 32.1564 156.046 32.1358 155.025 32.1358C154.005 32.1358 153.273 32.1358 152.371 32.1925C152.318 32.154 152.274 32.1042 152.242 32.0465C152.211 31.9889 152.192 31.9249 152.188 31.8592C152.184 31.7936 152.195 31.7278 152.22 31.6668C152.244 31.6058 152.282 31.551 152.33 31.5064L152.959 31.4084C153.412 31.331 153.474 31.1917 153.474 31.0731C153.387 30.6184 153.263 30.1716 153.103 29.737L152.588 28.0449C152.49 27.7302 152.33 27.689 151.645 27.689H149.3ZM151.542 26.6572C151.99 26.6572 152.093 26.6005 151.933 26.0898L151.418 24.4957C151.145 23.6497 150.789 22.587 150.614 22.1743C150.455 22.6283 150.063 23.691 149.769 24.5937L149.28 26.0691C149.099 26.585 149.197 26.6572 149.692 26.6572H151.542Z"/>
<path fill="white" d="M158.225 19.7857C158.071 19.631 158.071 19.1564 158.282 19.0996C158.952 19.1357 159.797 19.1564 160.761 19.1564C161.405 19.1564 161.977 19.1564 162.683 19.0996C162.683 20.3171 163.373 21.519 164.229 23.3659L165.527 26.1361C165.702 26.5333 166.408 27.7714 166.687 28.2614C166.939 27.7868 167.253 27.1781 167.784 26.0174L168.815 23.8559C169.601 22.3409 170.225 20.7465 170.675 19.0996C171.323 19.1531 171.973 19.172 172.623 19.1564C173.272 19.1564 174.169 19.1564 174.88 19.0996C174.973 19.1862 175.031 19.3042 175.042 19.4308C175.053 19.5574 175.018 19.6838 174.942 19.7857L174.37 19.8837C173.566 20.023 173.174 20.2603 173.174 21.3024C173.174 25.3519 173.21 27.4928 173.329 29.9535C173.37 30.8563 173.447 31.3309 174.215 31.4289L174.844 31.5063C174.998 31.661 174.998 32.115 174.803 32.1924C173.901 32.1563 173.056 32.1356 172.092 32.1356C171.211 32.1356 170.129 32.1356 169.186 32.1924C169.131 32.1551 169.086 32.1062 169.053 32.0492C169.02 31.9922 169 31.9285 168.994 31.8628C168.989 31.7971 168.998 31.731 169.022 31.6693C169.045 31.6076 169.082 31.5519 169.129 31.5063L169.717 31.4289C170.618 31.3102 170.618 31.0729 170.618 29.8813L170.582 24.769V22.5301H170.541C169.088 25.6769 167.516 28.9579 166.223 32.2801C166.111 32.3715 165.97 32.4208 165.826 32.4194C165.647 32.4271 165.469 32.3861 165.311 32.3007C164.543 29.8658 162.131 24.9857 161.029 22.4321H160.987C160.91 23.7115 160.895 24.573 160.874 25.5996C160.874 26.8738 160.833 28.8392 160.833 30.0206C160.833 31.0059 160.951 31.2793 161.734 31.3979L162.502 31.5166C162.574 31.6188 162.609 31.7422 162.601 31.8668C162.594 31.9915 162.544 32.1098 162.461 32.2027C161.734 32.1666 160.915 32.1459 160.147 32.1459C159.519 32.1459 158.771 32.1459 157.983 32.2027C157.731 32.1253 157.731 31.6146 157.906 31.5166L158.261 31.4547C159.261 31.2793 159.38 31.1606 159.498 29.9432C159.596 28.9785 159.653 27.271 159.771 25.3984C159.854 24.0829 159.89 22.4889 159.89 21.4313C159.89 20.3738 159.457 20.0127 158.674 19.8837L158.225 19.7857Z"/>
<path fill="white" d="M180.414 24.2685C180.414 24.8205 180.414 24.8617 180.961 24.8617H182.316C183.346 24.8617 183.578 24.7225 183.774 23.7784L183.872 23.2883C184.006 23.1284 184.501 23.1284 184.599 23.2883C184.557 23.9177 184.537 24.6296 184.537 25.3518C184.537 26.074 184.537 26.8117 184.599 27.4411C184.497 27.5272 184.368 27.5745 184.235 27.5745C184.102 27.5745 183.973 27.5272 183.872 27.4411L183.774 26.9252C183.578 25.9812 183.341 25.8264 182.316 25.8264H180.961C180.445 25.8264 180.414 25.8264 180.414 26.4351V28.772C180.414 29.68 180.492 30.3196 180.729 30.6395C180.966 30.9593 181.357 31.1553 182.79 31.1553C184.501 31.1553 185.165 31.0986 186.248 28.8752C186.299 28.8282 186.361 28.7931 186.427 28.7724C186.494 28.7516 186.564 28.7457 186.634 28.755C186.703 28.7643 186.769 28.7887 186.828 28.8264C186.887 28.8641 186.937 28.9142 186.974 28.9732C186.855 30.0569 186.577 31.1171 186.15 32.12C185.119 32.0839 183.223 32.0633 181.615 32.0633H179.038C178.095 32.0633 177.132 32.0633 175.658 32.12C175.582 32.0217 175.541 31.9011 175.541 31.777C175.541 31.6529 175.582 31.5322 175.658 31.4339L176.58 31.2946C177.467 31.1553 177.611 31.0419 177.611 29.2312V21.9677C177.611 20.1776 177.493 20.0642 176.58 19.9042L176.091 19.8062C176.012 19.7068 175.973 19.5818 175.981 19.4553C175.988 19.3287 176.042 19.2094 176.132 19.1201C177.055 19.1562 178.018 19.1769 178.961 19.1769H183.125C184.377 19.1769 185.5 19.1769 185.753 19.1201C185.753 19.4348 185.913 20.8483 186.011 22.1689C185.933 22.3856 185.495 22.4217 185.284 22.2463C185.137 21.6868 184.884 21.1612 184.537 20.6987C184.274 20.4731 183.968 20.3029 183.638 20.1983C183.307 20.0937 182.959 20.0569 182.615 20.0899H181.043C180.394 20.0899 180.394 20.1261 180.394 20.8534L180.414 24.2685Z"/>
<path fill="white" d="M115.97 48.0293C115.97 49.6337 115.97 51.1813 116.017 51.9963C115.827 52.1857 115.601 52.3338 115.352 52.4314C115.103 52.5291 114.836 52.5741 114.569 52.5638C114.569 52.5638 113.729 51.3051 112.574 49.8761L106.906 42.8345C106.073 41.734 105.178 40.6816 104.226 39.6825C104.092 40.1867 104.05 40.711 104.103 41.2301V46.038C104.103 48.0293 104.201 49.8761 104.469 50.5416C104.69 51.0575 105.257 51.2328 105.896 51.3309L106.586 51.4289C106.67 51.557 106.714 51.7067 106.714 51.8596C106.714 52.0126 106.67 52.1622 106.586 52.2904C105.257 52.244 104.273 52.2182 103.289 52.2182C102.304 52.2182 101.469 52.244 100.532 52.2904C100.448 52.1622 100.404 52.0126 100.404 51.8596C100.404 51.7067 100.448 51.557 100.532 51.4289L100.954 51.3567C101.619 51.2328 102.108 51.0575 102.304 50.5416C102.577 49.8761 102.65 48.0293 102.65 46.038V39.7805C102.65 38.4238 102.65 38.0318 102.479 37.6861C102.309 37.3405 101.938 36.9742 101.073 36.8504L100.382 36.7524C100.207 36.5512 100.233 35.9631 100.48 35.8857C101.634 35.9373 102.866 35.9631 103.876 35.9631C104.711 35.9631 105.422 35.9373 105.937 35.8857C106.185 36.9949 107.782 38.8675 109.998 41.5036L112.059 43.9436C113.141 45.223 113.852 46.0845 114.419 46.6519C114.515 46.2836 114.552 45.9021 114.527 45.5222V42.1226C114.527 40.1262 114.429 38.2794 114.156 37.6139C113.94 37.098 113.399 36.9278 112.729 36.8298L112.069 36.7524C111.984 36.6242 111.938 36.4734 111.938 36.3191C111.938 36.1648 111.984 36.014 112.069 35.8857C113.399 35.9373 114.357 35.9631 115.367 35.9631C116.274 35.9631 117.161 35.9373 118.119 35.8857C118.203 36.0145 118.248 36.1651 118.248 36.3191C118.248 36.4731 118.203 36.6237 118.119 36.7524L117.676 36.8246C117.402 36.8261 117.133 36.9022 116.899 37.0449C116.665 37.1876 116.474 37.3914 116.346 37.6345C116.078 38.3 115.98 40.1468 115.98 42.1432L115.97 48.0293Z"/>
<path fill="white" d="M123.386 46.6524C122.793 46.6524 122.721 46.6782 122.571 47.1425L121.639 50.0004C121.537 50.2858 121.48 50.585 121.469 50.8877C121.469 51.0373 121.788 51.1818 122.499 51.3056L123.236 51.4294C123.38 51.5996 123.432 52.1671 123.185 52.2909C122.324 52.2445 121.438 52.2445 120.407 52.2187C119.567 52.2187 119 52.2909 117.872 52.2909C117.599 52.1464 117.624 51.6254 117.8 51.4294L118.459 51.3572C119.052 51.2798 119.546 51.0838 119.964 50.1242C120.381 49.1647 120.85 47.9576 121.51 46.183L123.7 40.1731C124.267 38.6255 124.684 37.7589 124.612 37.047C125.792 36.7735 126.673 35.5664 126.75 35.5664C127.07 35.5664 127.219 35.6902 127.317 36.0823C127.513 36.7942 127.833 37.7073 128.425 39.4561L131.77 49.1131C132.285 50.5885 132.512 51.1766 133.419 51.3004L134.356 51.45C134.501 51.5738 134.552 52.1671 134.356 52.3115C133.176 52.2651 131.847 52.2393 130.569 52.2393C129.291 52.2393 128.379 52.2651 127.245 52.3115C127.178 52.2632 127.123 52.2006 127.083 52.1282C127.043 52.0558 127.02 51.9755 127.015 51.893C127.01 51.8106 127.024 51.728 127.055 51.6514C127.085 51.5748 127.133 51.506 127.194 51.45L127.982 51.3262C128.549 51.2282 128.647 51.058 128.647 50.9084C128.539 50.3371 128.382 49.7762 128.178 49.2318L127.513 47.1167C127.395 46.7195 127.194 46.6731 126.333 46.6731L123.386 46.6524ZM126.189 45.3473C126.756 45.3473 126.879 45.2699 126.704 44.6302L126.065 42.6338C125.72 41.5763 125.277 40.2453 125.034 39.7295C124.839 40.2969 124.344 41.6279 124.004 42.7576L123.386 44.6044C123.164 45.2699 123.288 45.3473 123.901 45.3473H126.189Z"/>
<path fill="white" d="M139.896 37.0931C137.041 37.0931 136.526 37.8565 135.686 39.9252C135.523 40.0265 135.328 40.0651 135.139 40.0337C134.949 40.0024 134.777 39.9034 134.655 39.7549C135.119 38.0319 135.366 36.701 135.614 35.3958C135.713 35.3483 135.821 35.3215 135.931 35.3171C136.04 35.3126 136.15 35.3307 136.253 35.3701C136.402 35.8859 136.521 35.9633 138.345 35.9633H145.379C146.34 35.9859 147.301 35.9601 148.259 35.8859C148.318 35.9262 148.364 35.9829 148.39 36.049C148.417 36.1151 148.423 36.1876 148.409 36.2573C147.078 37.9418 145.846 39.7022 144.719 41.5295L142.034 45.6926C139.551 49.5565 138.943 50.4695 138.943 50.7636C138.943 50.9596 139.211 51.0834 141.205 51.0834H143.493C145.899 51.0834 146.739 50.7636 148.094 47.9882C148.248 47.8983 148.429 47.8661 148.605 47.8972C148.78 47.9284 148.939 48.021 149.053 48.1585C148.903 49.5152 148.362 51.6818 147.971 52.2854C145.909 52.239 144.549 52.2132 142.818 52.2132H136.634C135.33 52.2132 134.542 52.239 134.145 52.2854C134.067 52.2513 134.005 52.1901 133.969 52.1133C133.933 52.0364 133.926 51.9491 133.949 51.8676C134.32 51.4497 135.495 49.6751 136.211 48.566L141.06 41.1787C141.504 40.4875 142.684 38.6407 143.122 37.8256C143.292 37.5058 143.369 37.3871 143.369 37.2375C143.369 37.0879 143.147 37.0879 142.529 37.0879L139.896 37.0931Z"/>
<path fill="white" d="M155.133 48.6174C155.133 50.9336 155.278 51.1039 156.411 51.2999L157.097 51.4237C157.193 51.5465 157.246 51.6982 157.246 51.8545C157.246 52.0107 157.193 52.1624 157.097 52.2852C155.767 52.2388 154.561 52.213 153.407 52.213C152.253 52.213 150.996 52.2388 149.666 52.2852C149.571 52.1617 149.52 52.0103 149.52 51.8545C149.52 51.6987 149.571 51.5472 149.666 51.4237L150.351 51.2999C151.485 51.1039 151.635 50.9336 151.635 48.6174V39.5587C151.635 37.2425 151.485 37.0671 150.351 36.871L149.666 36.7472C149.571 36.6237 149.52 36.4723 149.52 36.3165C149.52 36.1607 149.571 36.0093 149.666 35.8857C150.996 35.9373 152.243 35.9631 153.407 35.9631C154.572 35.9631 155.788 35.9373 157.117 35.8857C157.215 36.0081 157.268 36.16 157.268 36.3165C157.268 36.473 157.215 36.6248 157.117 36.7472L156.432 36.871C155.298 37.0671 155.154 37.2425 155.154 39.5587L155.133 48.6174Z"/>
<path fill="white" d="M164.254 42.5611C164.254 43.2266 164.28 43.2988 164.945 43.2988H166.836C168.14 43.2988 168.413 43.1285 168.66 41.9214L168.779 41.3282C168.912 41.2218 169.077 41.164 169.248 41.164C169.418 41.164 169.583 41.2218 169.717 41.3282C169.665 42.1174 169.644 43.0305 169.644 43.9642C169.644 44.898 169.644 45.7853 169.717 46.5436C169.584 46.6517 169.419 46.7107 169.248 46.7107C169.077 46.7107 168.911 46.6517 168.779 46.5436L168.66 45.9555C168.413 44.7742 168.145 44.573 166.836 44.573H164.924C164.26 44.573 164.234 44.6504 164.234 45.3158V48.638C164.234 50.9285 164.383 51.1297 165.486 51.2741L166.398 51.3979C166.481 51.5261 166.526 51.6757 166.526 51.8287C166.526 51.9816 166.481 52.1313 166.398 52.2594C164.852 52.213 163.667 52.1872 162.487 52.1872C161.307 52.1872 160.127 52.213 158.648 52.2594C158.553 52.1359 158.502 51.9845 158.502 51.8287C158.502 51.6729 158.553 51.5214 158.648 51.3979L159.462 51.2741C160.57 51.1039 160.714 50.9285 160.714 48.638V39.5071C160.714 37.2167 160.57 36.9949 159.462 36.8246L158.947 36.7472C158.725 36.6028 158.725 35.9838 158.998 35.8857C160.029 35.9373 161.286 35.9631 162.466 35.9631H167.619C169.165 35.9631 170.598 35.9373 170.938 35.8857C170.938 36.3036 170.938 38.0782 170.989 39.729C170.892 40.0024 170.35 40.023 170.052 39.827C169.926 39.1512 169.686 38.5021 169.34 37.9079C168.923 37.3921 168.181 37.0929 166.929 37.0929H165.007C164.198 37.0929 164.198 37.1445 164.198 38.1246L164.254 42.5611Z"/>
<path fill="white" d="M175.426 46.6524C174.833 46.6524 174.761 46.6782 174.612 47.1425L173.653 50.0004C173.549 50.2851 173.489 50.5846 173.478 50.8877C173.478 51.0373 173.803 51.1818 174.509 51.3056L175.246 51.4294C175.395 51.5996 175.447 52.1671 175.199 52.2909C174.339 52.2445 173.452 52.2445 172.417 52.2187C171.582 52.2187 171.015 52.2909 169.887 52.2909C169.613 52.1464 169.639 51.6254 169.809 51.4294L170.474 51.3572C171.067 51.2798 171.556 51.0838 171.979 50.1242C172.401 49.1647 172.86 47.9576 173.525 46.183L175.746 40.1731C176.307 38.6255 176.73 37.7589 176.653 37.047C177.833 36.7735 178.745 35.5664 178.796 35.5664C179.116 35.5664 179.26 35.6902 179.358 36.0823C179.559 36.7942 179.873 37.7073 180.466 39.4561L183.815 49.1131C184.331 50.5885 184.552 51.1766 185.464 51.3004L186.397 51.45C186.546 51.5738 186.593 52.1671 186.397 52.3115C185.217 52.2651 183.893 52.2393 182.609 52.2393C181.326 52.2393 180.419 52.2651 179.286 52.3115C179.219 52.2628 179.164 52.1998 179.125 52.1273C179.086 52.0547 179.063 51.9742 179.059 51.8918C179.054 51.8093 179.068 51.7269 179.099 51.6505C179.131 51.5741 179.178 51.5056 179.239 51.45L180.028 51.3262C180.595 51.2282 180.687 51.058 180.687 50.9084C180.579 50.3376 180.424 49.7768 180.224 49.2318L179.559 47.1167C179.435 46.7195 179.239 46.6731 178.379 46.6731L175.426 46.6524ZM178.229 45.3473C178.796 45.3473 178.92 45.2699 178.745 44.6302L178.101 42.6338C177.755 41.5763 177.312 40.2453 177.07 39.7295C176.874 40.2969 176.385 41.6279 176.039 42.7576L175.426 44.6044C175.205 45.2699 175.328 45.3473 175.941 45.3473H178.229Z"/>
<path fill="white" d="M99.7948 59.4507C99.7895 59.0296 99.8701 58.6119 100.032 58.2231C100.193 57.8343 100.432 57.4826 100.734 57.1895C101.036 56.8964 101.395 56.668 101.788 56.5184C102.181 56.3688 102.6 56.301 103.021 56.3193C103.437 56.3023 103.852 56.3735 104.24 56.5281C104.627 56.6828 104.977 56.9175 105.267 57.2169L104.855 57.6296C104.622 57.3832 104.339 57.1884 104.026 57.0578C103.712 56.9272 103.375 56.8637 103.036 56.8713C102.692 56.8558 102.348 56.9103 102.025 57.0315C101.703 57.1527 101.408 57.3381 101.159 57.5765C100.91 57.8149 100.711 58.1014 100.576 58.4186C100.441 58.7359 100.371 59.0773 100.371 59.4223C100.371 59.7673 100.441 60.1087 100.576 60.4259C100.711 60.7432 100.91 61.0296 101.159 61.268C101.408 61.5064 101.703 61.6919 102.025 61.8131C102.348 61.9343 102.692 61.9888 103.036 61.9733C103.374 61.9858 103.711 61.9265 104.024 61.7994C104.338 61.6723 104.621 61.4801 104.855 61.2356L105.267 61.6483C104.975 61.9482 104.623 62.1832 104.234 62.3378C103.845 62.4925 103.428 62.5634 103.01 62.5459C102.594 62.5626 102.179 62.4948 101.789 62.3468C101.4 62.1987 101.044 61.9734 100.744 61.6843C100.443 61.3952 100.204 61.0483 100.041 60.6645C99.8783 60.2806 99.7945 59.8678 99.7948 59.4507Z"/>
<path fill="white" d="M106.659 56.3555H107.308V61.9527H110.75V62.5149H106.659V56.3555Z"/>
<path fill="white" d="M116.181 61.9527V62.5149H111.832V56.3555H116.053V56.9178H112.482V59.1102H115.666V59.6622H112.482V61.9527H116.181Z"/>
<path fill="white" d="M121.566 60.8693H118.14L117.403 62.5149H116.728L119.536 56.3555H120.18L122.989 62.5149H122.303L121.566 60.8693ZM121.329 60.3535L119.856 57.0467L118.377 60.3535H121.329Z"/>
<path fill="white" d="M129.152 56.3555V62.5149H128.616L124.658 57.5162V62.5149H124.009V56.3555H124.545L128.508 61.3542V56.3555H129.152Z"/>
<path fill="white" d="M131.806 56.3555H131.156V62.5098H131.806V56.3555Z"/>
<path fill="white" d="M138.948 56.3555V62.5149H138.412L134.459 57.5162V62.5149H133.805V56.3555H134.341L138.304 61.3542V56.3555H138.948Z"/>
<path fill="white" d="M145.281 59.4507H145.904V61.7979C145.272 62.3256 144.47 62.6044 143.647 62.582C142.818 62.582 142.022 62.2521 141.436 61.6649C140.849 61.0777 140.519 60.2812 140.519 59.4507C140.519 58.6202 140.849 57.8238 141.436 57.2365C142.022 56.6493 142.818 56.3194 143.647 56.3194C144.068 56.3007 144.489 56.37 144.882 56.5228C145.275 56.6755 145.632 56.9084 145.93 57.2067L145.528 57.6194C145.232 57.3153 144.865 57.089 144.461 56.9608C144.057 56.8326 143.627 56.8064 143.21 56.8844C142.793 56.9624 142.401 57.1424 142.071 57.4082C141.74 57.674 141.48 58.0175 141.313 58.4082C141.147 58.7988 141.079 59.2246 141.117 59.6476C141.154 60.0707 141.295 60.4779 141.528 60.8332C141.76 61.1884 142.077 61.4808 142.449 61.6842C142.822 61.8876 143.239 61.9957 143.663 61.9991C144.236 62.0193 144.8 61.8528 145.271 61.5245L145.281 59.4507Z"/>
<path fill="white" d="M149.465 61.7669L149.723 61.251C150.283 61.7416 151.004 62.008 151.748 61.999C152.902 61.999 153.402 61.5141 153.402 60.9054C153.402 59.2185 149.615 60.2554 149.615 57.9753C149.615 57.0725 150.315 56.2883 151.882 56.2883C152.557 56.28 153.22 56.4701 153.789 56.8352L153.567 57.351C153.065 57.0233 152.481 56.8445 151.882 56.8352C150.759 56.8352 150.254 57.351 150.254 57.9546C150.254 59.6415 154.041 58.6252 154.041 60.8641C154.041 61.772 153.32 62.5458 151.748 62.5458C150.914 62.5747 150.099 62.2894 149.465 61.7463"/>
<path fill="white" d="M159.797 61.9527V62.5149H155.448V56.3555H159.663V56.9178H156.097V59.1102H159.276V59.6622H156.097V61.9527H159.797Z"/>
<path fill="white" d="M165.522 62.5149L164.12 60.534C163.961 60.534 163.801 60.534 163.605 60.534H161.956V62.4892H161.317V56.3555H163.615C165.161 56.3555 166.13 57.1499 166.13 58.4654C166.152 58.9003 166.024 59.3295 165.768 59.6816C165.512 60.0336 165.143 60.2871 164.723 60.3999L166.223 62.5149H165.522ZM165.491 58.4654C165.491 57.4801 164.837 56.9178 163.61 56.9178H161.977V60.013H163.61C164.837 60.013 165.491 59.4404 165.491 58.4654Z"/>
<path fill="white" d="M172.788 56.3555L170.067 62.5149H169.428L166.702 56.3555H167.403L169.758 61.705L172.133 56.3555H172.788Z"/>
<path fill="white" d="M174.329 56.3555H173.679V62.5098H174.329V56.3555Z"/>
<path fill="white" d="M175.787 59.4507C175.782 59.0296 175.862 58.6119 176.024 58.2231C176.185 57.8343 176.424 57.4826 176.726 57.1895C177.028 56.8964 177.387 56.668 177.78 56.5184C178.173 56.3688 178.592 56.301 179.013 56.3193C179.429 56.303 179.844 56.3744 180.231 56.5291C180.618 56.6837 180.969 56.9181 181.259 57.2169L180.847 57.6296C180.611 57.3881 180.328 57.1983 180.014 57.0722C179.701 56.9461 179.365 56.8865 179.028 56.8971C178.684 56.8816 178.34 56.9361 178.017 57.0573C177.695 57.1785 177.4 57.3639 177.151 57.6023C176.902 57.8407 176.703 58.1272 176.568 58.4444C176.433 58.7617 176.363 59.1031 176.363 59.4481C176.363 59.7931 176.433 60.1345 176.568 60.4517C176.703 60.769 176.902 61.0554 177.151 61.2938C177.4 61.5322 177.695 61.7176 178.017 61.8388C178.34 61.9601 178.684 62.0146 179.028 61.9991C179.366 62.0109 179.703 61.9514 180.016 61.8243C180.33 61.6972 180.613 61.5054 180.847 61.2614L181.259 61.6741C180.968 61.9753 180.616 62.2119 180.227 62.3683C179.838 62.5247 179.421 62.5975 179.002 62.582C178.583 62.5988 178.165 62.53 177.773 62.3797C177.381 62.2295 177.023 62.0009 176.723 61.7079C176.422 61.4149 176.184 61.0637 176.023 60.6757C175.862 60.2876 175.782 59.8708 175.787 59.4507Z"/>
<path fill="white" d="M187 61.9527V62.5149H182.651V56.3555H186.866V56.9178H183.3V59.1102H186.479V59.6622H183.3V61.9527H187Z"/>
</svg>