<svg width="24" height="24" viewBox="0 0 24 24" fill="none" xmlns="http://www.w3.org/2000/svg">
<g clip-path="url(#clip0_311_19)">
<path d="M8.53989 12.1661L10.2579 11.3073L11.9758 12.1661C12.0246 12.1906 12.0783 12.2032 12.1329 12.2031C12.1813 12.203 12.2292 12.193 12.2737 12.1736C12.3181 12.1543 12.3581 12.126 12.3911 12.0906C12.4526 12.0222 12.4861 11.9332 12.4849 11.8412V4H8.0313V11.8422C8.02988 11.9274 8.0586 12.0104 8.11239 12.0766C8.16316 12.1374 8.23299 12.1794 8.31058 12.1956C8.38816 12.2119 8.46896 12.2015 8.53989 12.1661Z" fill="#072D3C"/>
<path d="M20.821 15.9161L21.6015 15.5256L22.382 15.9161C22.4499 15.95 22.5269 15.961 22.6016 15.9475C22.6763 15.934 22.7446 15.8967 22.7963 15.8411C22.8583 15.7732 22.8919 15.6841 22.8901 15.5922V11.0312H20.3124V15.5894C20.3116 15.6381 20.3205 15.6865 20.3386 15.7317C20.3567 15.777 20.3837 15.8181 20.4179 15.8528C20.4702 15.9039 20.5371 15.9375 20.6094 15.9488C20.6816 15.9602 20.7556 15.9487 20.821 15.9161Z" fill="#072D3C"/>
<path d="M10.4921 17.8282H4.87933C4.79247 17.8269 4.7081 17.8571 4.64177 17.9132C4.57543 17.9693 4.53162 18.0475 4.51839 18.1333C4.51186 18.183 4.51599 18.2335 4.53052 18.2814C4.54505 18.3293 4.56965 18.3736 4.60266 18.4113C4.63567 18.4489 4.67633 18.4791 4.72194 18.4998C4.76755 18.5205 4.81706 18.5312 4.86714 18.5313H10.48C10.5668 18.5325 10.6512 18.5023 10.7175 18.4462C10.7838 18.3902 10.8277 18.312 10.8409 18.2261C10.8474 18.1765 10.8433 18.126 10.8288 18.0781C10.8142 18.0301 10.7896 17.9858 10.7566 17.9482C10.7236 17.9105 10.6829 17.8803 10.6373 17.8596C10.5917 17.8389 10.5422 17.8282 10.4921 17.8282Z" fill="#072D3C"/>
<path d="M4.86714 15.7188H7.66745C7.75431 15.72 7.83868 15.6898 7.90501 15.6337C7.97135 15.5777 8.01517 15.4995 8.02839 15.4136C8.03493 15.364 8.03079 15.3135 8.01626 15.2656C8.00173 15.2176 7.97714 15.1733 7.94413 15.1357C7.91112 15.098 7.87045 15.0678 7.82484 15.0471C7.77923 15.0264 7.72973 15.0157 7.67964 15.0157H4.87933C4.79247 15.0144 4.7081 15.0446 4.64177 15.1007C4.57543 15.1568 4.53162 15.235 4.51839 15.3208C4.51186 15.3705 4.51599 15.421 4.53052 15.4689C4.54505 15.5168 4.56965 15.5611 4.60266 15.5988C4.63567 15.6364 4.67633 15.6666 4.72194 15.6873C4.76755 15.708 4.81706 15.7187 4.86714 15.7188Z" fill="#072D3C"/>
<path d="M18.5781 7.51562H13.1875V11.8412C13.1894 12.0219 13.1447 12.2 13.058 12.3585C12.9712 12.517 12.8451 12.6505 12.6919 12.7462C12.5386 12.8419 12.3634 12.8966 12.1829 12.9051C12.0024 12.9136 11.8228 12.8756 11.6613 12.7947L10.2578 12.0916L8.85437 12.7947C8.64267 12.9007 8.40145 12.9324 8.16957 12.8846C7.93768 12.8368 7.72863 12.7123 7.57609 12.5312C7.41465 12.3381 7.32681 12.094 7.32812 11.8422V7.51562H1.9375V20.7578C1.9375 20.8511 1.97454 20.9405 2.04047 21.0064C2.1064 21.0723 2.19582 21.1094 2.28906 21.1094H13.75V11.0312C13.75 10.8448 13.8241 10.6659 13.9559 10.5341C14.0878 10.4022 14.2666 10.3281 14.4531 10.3281H18.5781V7.51562ZM4.86719 14.3125H7.65625C8.22719 14.3125 8.71422 14.7559 8.73438 15.3264C8.73973 15.4683 8.71642 15.6098 8.66583 15.7424C8.61525 15.875 8.53842 15.9961 8.43996 16.0984C8.3415 16.2007 8.22342 16.282 8.09279 16.3376C7.96215 16.3932 7.82165 16.4219 7.67969 16.4219H4.89297C4.32203 16.4219 3.835 15.9784 3.81484 15.408C3.80949 15.2663 3.83273 15.125 3.88317 14.9925C3.93362 14.86 4.01023 14.7391 4.10844 14.6368C4.20666 14.5346 4.32446 14.4532 4.45481 14.3975C4.58517 14.3417 4.72542 14.3128 4.86719 14.3125ZM10.4922 19.2344H4.89297C4.32203 19.2344 3.835 18.7909 3.81484 18.2205C3.80949 18.0788 3.83273 17.9375 3.88317 17.805C3.93362 17.6725 4.01023 17.5516 4.10844 17.4493C4.20666 17.3471 4.32446 17.2657 4.45481 17.21C4.58517 17.1542 4.72542 17.1253 4.86719 17.125H10.4688C11.0397 17.125 11.5267 17.5684 11.5469 18.1389C11.5522 18.2808 11.5289 18.4223 11.4783 18.5549C11.4277 18.6875 11.3509 18.8086 11.2525 18.9109C11.154 19.0132 11.0359 19.0945 10.9053 19.1501C10.7747 19.2057 10.6342 19.2344 10.4922 19.2344Z" fill="#072D3C"/>
<path d="M19.5156 4.35156C19.5156 4.25832 19.4786 4.1689 19.4127 4.10297C19.3467 4.03704 19.2573 4 19.1641 4H13.1875V6.8125H19.5156V4.35156Z" fill="#072D3C"/>
<path d="M7.32812 4H1.35156C1.25832 4 1.1689 4.03704 1.10297 4.10297C1.03704 4.1689 1 4.25832 1 4.35156V6.8125H7.32812V4Z" fill="#072D3C"/>
<path d="M21.8359 18.5313H17.6293C17.5425 18.53 17.4581 18.5603 17.3918 18.6163C17.3254 18.6724 17.2816 18.7506 17.2684 18.8364C17.2619 18.8861 17.266 18.9366 17.2805 18.9845C17.2951 19.0324 17.3196 19.0767 17.3527 19.1144C17.3857 19.1521 17.4263 19.1823 17.4719 19.203C17.5176 19.2236 17.5671 19.2344 17.6171 19.2344H21.8237C21.9106 19.2357 21.9949 19.2054 22.0613 19.1494C22.1276 19.0933 22.1714 19.0151 22.1846 18.9293C22.1912 18.8796 22.187 18.8291 22.1725 18.7812C22.158 18.7333 22.1334 18.689 22.1004 18.6513C22.0674 18.6136 22.0267 18.5834 21.9811 18.5627C21.9355 18.5421 21.886 18.5313 21.8359 18.5313Z" fill="#072D3C"/>
<path d="M23.5938 15.5922C23.5954 15.7728 23.5507 15.9508 23.4639 16.1091C23.377 16.2674 23.2509 16.4008 23.0977 16.4964C22.9445 16.592 22.7693 16.6467 22.5889 16.6551C22.4085 16.6636 22.229 16.6256 22.0675 16.5447L21.6016 16.3103L21.1516 16.5353C21.047 16.589 20.9345 16.6254 20.8183 16.6431C20.6577 16.6671 20.4938 16.6536 20.3393 16.6037C20.1848 16.5539 20.0439 16.469 19.9277 16.3558C19.8263 16.2556 19.746 16.1362 19.6913 16.0046C19.6367 15.873 19.6088 15.7319 19.6094 15.5894V14.0781H14.4531V21.1094H25V14.0781H23.5938V15.5922ZM21.8359 19.9375H17.643C17.072 19.9375 16.585 19.4941 16.5648 18.9236C16.5595 18.7819 16.5827 18.6406 16.6332 18.5081C16.6836 18.3757 16.7602 18.2547 16.8584 18.1524C16.9567 18.0502 17.0745 17.9688 17.2048 17.9131C17.3352 17.8574 17.4754 17.8285 17.6172 17.8281H21.8125C22.3834 17.8281 22.8705 18.2716 22.8906 18.842C22.896 18.9839 22.8727 19.1254 22.8221 19.258C22.7715 19.3907 22.6947 19.5118 22.5962 19.614C22.4978 19.7163 22.3797 19.7977 22.249 19.8532C22.1184 19.9088 21.9779 19.9375 21.8359 19.9375Z" fill="#072D3C"/>
<path d="M24.6484 11.0312H23.5938V13.375H25V11.3828C25 11.2896 24.963 11.2002 24.897 11.1342C24.8311 11.0683 24.7417 11.0312 24.6484 11.0312Z" fill="#072D3C"/>
<path d="M14.4531 11.3828V13.375H19.6094V11.0312H14.8047C14.7114 11.0312 14.622 11.0683 14.5561 11.1342C14.4902 11.2002 14.4531 11.2896 14.4531 11.3828Z" fill="#072D3C"/>
</g>
<defs>
<clipPath id="clip0_311_19">
<rect width="24" height="24" fill="white"/>
</clipPath>
</defs>
</svg>
