<svg width="24" height="24" viewBox="0 0 24 24" fill="none" xmlns="http://www.w3.org/2000/svg">
<path d="M5 7C5 4.23858 7.23858 2 10 2C12.7614 2 15 4.23858 15 7C15 9.76142 12.7614 12 10 12C7.23858 12 5 9.76142 5 7Z" fill="#A2A2A2"/>
<path d="M2 21C2 16.5817 5.58172 13 10 13C14.4183 13 18 16.5817 18 21C18 21.5523 17.5523 22 17 22H3C2.44772 22 2 21.5523 2 21Z" fill="#A2A2A2"/>
<path d="M19 2C18.4477 2 18 2.44772 18 3C18 3.55228 18.4477 4 19 4H21C21.5523 4 22 3.55228 22 3C22 2.44772 21.5523 2 21 2H19Z" fill="#A2A2A2"/>
<path d="M16 7C16 6.44772 16.4477 6 17 6H21C21.5523 6 22 6.44772 22 7C22 7.55228 21.5523 8 21 8H17C16.4477 8 16 7.55228 16 7Z" fill="#A2A2A2"/>
<path d="M20 10C19.4477 10 19 10.4477 19 11C19 11.5523 19.4477 12 20 12H21C21.5523 12 22 11.5523 22 11C22 10.4477 21.5523 10 21 10H20Z" fill="#A2A2A2"/>
</svg>
