<svg width="24" height="24" viewBox="0 0 24 24" fill="none" xmlns="http://www.w3.org/2000/svg">
<path d="M11.3307 16.3516H12.6693V17.6901H11.3307V16.3516Z" fill="#A2A2A2"/>
<path d="M16.6654 16.3516H18.0039V17.6901H16.6654V16.3516Z" fill="#A2A2A2"/>
<path d="M5.99609 11.3311H7.33469V12.6696H5.99609V11.3311Z" fill="#A2A2A2"/>
<path d="M5.99609 16.3516H7.33469V17.6901H5.99609V16.3516Z" fill="#A2A2A2"/>
<path d="M19.845 3.2552H19.4062V5.09637C19.4062 5.41996 19.1439 5.6823 18.8203 5.6823C18.4967 5.6823 18.2344 5.41996 18.2344 5.09637V3.2552V2.58594C18.2344 2.26234 17.972 2 17.6484 2C17.3248 2 17.0625 2.26234 17.0625 2.58594V3.2552H15.6406V5.09637C15.6406 5.41996 15.3783 5.6823 15.0547 5.6823C14.7311 5.6823 14.4688 5.41996 14.4688 5.09637V3.2552V2.58594C14.4688 2.26234 14.2064 2 13.8828 2C13.5592 2 13.2969 2.26234 13.2969 2.58594V3.2552H11.875V5.09637C11.875 5.41996 11.6127 5.6823 11.2891 5.6823C10.9655 5.6823 10.7031 5.41996 10.7031 5.09637V3.2552V2.58594C10.7031 2.26234 10.4408 2 10.1172 2C9.79359 2 9.53125 2.26234 9.53125 2.58594V3.2552H8.10938V5.09637C8.10938 5.41996 7.84703 5.6823 7.52344 5.6823C7.19984 5.6823 6.9375 5.41996 6.9375 5.09637V3.2552V2.58594C6.9375 2.26234 6.67516 2 6.35156 2C6.02797 2 5.76562 2.26234 5.76562 2.58594V3.2552H4.15492C2.96672 3.2552 2 4.22191 2 5.41016V7.02082H22V5.41016C22 4.22191 21.0333 3.2552 19.845 3.2552Z" fill="#A2A2A2"/>
<path d="M2 19.8447C2 21.033 2.96672 21.9997 4.15492 21.9997H19.845C21.0333 21.9997 22 21.033 22 19.8447V8.19238H2V19.8447ZM13.8411 18.2757C13.8411 18.5993 13.5788 18.8616 13.2552 18.8616H10.7447C10.4211 18.8616 10.1588 18.5993 10.1588 18.2757V15.7653C10.1588 15.4417 10.4211 15.1794 10.7447 15.1794H13.2552C13.5788 15.1794 13.8411 15.4417 13.8411 15.7653V18.2757ZM15.4935 10.7445C15.4935 10.4209 15.7559 10.1586 16.0795 10.1586H18.5898C18.9134 10.1586 19.1758 10.4209 19.1758 10.7445V13.2549C19.1758 13.5785 18.9134 13.8408 18.5898 13.8408H16.0795C15.7559 13.8408 15.4935 13.5785 15.4935 13.2549V10.7445ZM15.4935 15.7653C15.4935 15.4417 15.7559 15.1794 16.0795 15.1794H18.5898C18.9134 15.1794 19.1758 15.4417 19.1758 15.7653V18.2757C19.1758 18.5993 18.9134 18.8616 18.5898 18.8616H16.0795C15.7559 18.8616 15.4935 18.5993 15.4935 18.2757V15.7653ZM10.2544 11.5854C10.4832 11.3566 10.8542 11.3566 11.083 11.5854L11.5563 12.0586L12.917 10.6979C13.1459 10.4691 13.5168 10.469 13.7457 10.6979C13.9745 10.9266 13.9745 11.2976 13.7457 11.5265L11.9707 13.3016C11.8608 13.4115 11.7117 13.4732 11.5563 13.4732C11.4009 13.4732 11.2519 13.4115 11.142 13.3016L10.2544 12.414C10.0255 12.1852 10.0255 11.8142 10.2544 11.5854ZM4.82418 10.7445C4.82418 10.4209 5.08652 10.1586 5.41012 10.1586H7.92059C8.24418 10.1586 8.50652 10.4209 8.50652 10.7445V13.2549C8.50652 13.5785 8.24418 13.8408 7.92059 13.8408H5.41012C5.08652 13.8408 4.82418 13.5785 4.82418 13.2549V10.7445ZM4.82418 15.7653C4.82418 15.4417 5.08652 15.1794 5.41012 15.1794H7.92059C8.24418 15.1794 8.50652 15.4417 8.50652 15.7653V18.2757C8.50652 18.5993 8.24418 18.8616 7.92059 18.8616H5.41012C5.08652 18.8616 4.82418 18.5993 4.82418 18.2757V15.7653Z" fill="#A2A2A2"/>
<path d="M16.6654 11.3311H18.0039V12.6696H16.6654V11.3311Z" fill="#A2A2A2"/>
</svg>
